<?xml version="1.0" standalone="no"?>
<!DOCTYPE svg PUBLIC "-//W3C//DTD SVG 1.1//EN" "http://www.w3.org/Graphics/SVG/1.1/DTD/svg11.dtd" >
<!--
2013-9-30: Created.
-->
<svg>
<metadata>
Created by iconfont
</metadata>
<defs>

<font id="iconfont" horiz-adv-x="1024" >
  <font-face
    font-family="iconfont"
    font-weight="500"
    font-stretch="normal"
    units-per-em="1024"
    ascent="896"
    descent="-128"
  />
    <missing-glyph />
    
    <glyph glyph-name="qingkongshanchu" unicode="&#34696;" d="M694.857143 749.714286L694.857143 822.857143c0 40.393143-32.749714 73.142857-73.142857 73.142857L402.285714 896c-40.393143 0-73.142857-32.749714-73.142857-73.142857l0-73.142857L36.571429 749.714286l0-73.142857 109.714286 0 0-731.428571c0-40.393143 32.749714-73.142857 73.142857-73.142857l585.142857 0c40.393143 0 73.142857 32.749714 73.142857 73.142857L877.714286 676.571429l109.714286 0L987.428571 749.714286 694.857143 749.714286zM402.285714 822.857143l219.428571 0 0-73.142857L402.285714 749.714286 402.285714 822.857143zM804.571429-54.85714299999995L219.428571-54.85714299999995 219.428571 676.571429l585.142857 0L804.571429-54.85714299999995zM329.142857 566.857143l73.142857 0 0-512-73.142857 0 0 512ZM475.428571 566.857143l73.142857 0 0-512-73.142857 0 0 512ZM621.714286 566.857143l73.142857 0 0-512-73.142857 0 0 512Z"  horiz-adv-x="1024" />

    
    <glyph glyph-name="duigoudaibiankuang" unicode="&#24712;" d="M796.999314 611.035429L420.392229 234.49965699999996 227.000686 427.927771l-51.713829-51.713829L394.536229 156.928c7.1424-7.1424 16.4992-10.7136 25.857829-10.7136s18.7136 3.5712 25.857829 10.7136l402.464914 402.3936L796.999314 611.035429zM512 896C229.215086 896 0 666.784914 0 384s229.215086-512 512-512 512 229.215086 512 512S794.784914 896 512 896zM512-91.42857100000003C249.857829-91.42857100000003 36.571429 121.85782900000004 36.571429 384S249.857829 859.428571 512 859.428571s475.428571-213.2864 475.428571-475.428571S774.142171-91.42857100000003 512-91.42857100000003z"  horiz-adv-x="1024" />

    
    <glyph glyph-name="dianzan" unicode="&#58880;" d="M190.193225 424.588417c14.446014 0 26.139334 11.718903 26.139334 26.13831 0 14.44499-11.69332 26.164916-26.139334 26.164916-0.271176 0-0.490164-0.149403-0.73678-0.149403l-62.496379-0.146333c-1.425466 0.195451-2.90005 0.295735-4.373611 0.295735-19.677155 0-35.621289-16.141632-35.621289-36.114522L86.622358 7.449925c0-19.949354 15.96767-35.597753 35.670407-35.597753 1.916653 0 3.808746-0.292666 5.649674 0l61.022819-0.022513c0.099261 0 0.148379-0.048095 0.24764-0.048095 0.097214 0 0.146333 0.048095 0.24457 0.048095l0.73678 0 0 0.148379c13.413498 0.540306 24.174586 11.422144 24.174586 24.960485 0 13.55983-10.760065 24.441669-24.174586 24.981974l0 0.393973-50.949392 0 1.450025 402.275993L190.193225 424.590464zM926.52241 462.051657c-19.283182 31.445176-47.339168 44.172035-81.289398 45.546336-1.77032 0.246617-3.536546 0.39295-5.380544 0.39295l-205.447139 0.688685c13.462616 39.059598 22.698978 85.58933 22.698978 129.317251 0 28.349675-3.193739 55.962569-9.041934 82.542948l-0.490164-0.049119c-10.638291 46.578852-51.736315 81.31498-100.966553 81.31498-57.264215 0-95.466282-48.15065-95.466282-106.126063 0-3.241834-0.294712-6.387477 0-9.532097-2.996241-108.386546-91.240027-195.548698-196.23636-207.513194l0-54.881958-0.785899-222.227314 0-229.744521 10.709923 0 500.025271-0.222057 8.746198 0.243547c19.35686-0.049119 30.239721 4.817726 47.803749 16.116049 16.682961 10.761088 29.236881 25.50079 37.490869 42.156122 2.260483 3.341095 4.028757 7.075139 5.106298 11.20111l77.018118 344.324116c1.056052 4.053316 1.348718 8.181333 1.056052 12.160971C943.643346 419.553751 938.781618 442.055231 926.52241 462.051657zM893.82573 409.162076l-82.983993-367.783411-0.099261 0.049119c-2.555196-6.141884-6.879688-11.596106-12.872169-15.427364-4.177136-2.727111-8.773827-4.351098-13.414521-4.964058-1.49812 0.195451-3.046383 0-4.620227 0l-477.028511 0.540306-0.171915 407.408897c89.323375 40.266076 154.841577 79.670527 188.596356 173.661202 0.072655-0.024559 0.124843-0.049119 0.195451-0.072655 2.99931 9.137101 6.313799 20.73423 8.697079 33.164331 5.551436 29.185716 5.258771 58.123792 5.258771 58.123792-4.937452 37.98001 25.940812 52.965306 44.364417 52.965306 25.304316-0.860601 50.263777-33.656541 50.263777-52.326762 0 0 5.600555-27.563776 5.649674-57.190537 0.048095-37.366026-4.6673-56.847729-4.6673-56.847729l-0.466628 0c-5.872754-30.879288-16.214287-60.138682-30.464849-86.964654l0.36839-0.342808c-2.358721-4.815679-3.709485-10.220782-3.709485-15.943111 0-19.922748 19.088754-21.742187 38.765909-21.742187l238.761895-0.270153c0 0 14.666024-0.465604 14.690584-0.465604l0-0.100284c12.132318 0.638543 24.221658-5.207605 31.100322-16.409738 5.504364-9.016351 6.437619-19.6045 3.486404-28.988218L893.82573 409.162076zM264.827039-28.31872c0.319272-0.024559 0.441045-0.024559 0.295735 0.024559 0.243547 0.048095 0.367367 0.074701-0.295735 0.074701s-0.539282-0.026606-0.271176-0.074701C264.43409-28.343279 264.532327-28.343279 264.827039-28.31872z"  horiz-adv-x="1024" />

    
    <glyph glyph-name="bqxin" unicode="&#59019;" d="M590.223661 721.033086C378.65076 913.42474 27.357977 786.174372 27.357977 475.288265 27.357977 48.905841 590.223661-195.54433 590.223661-195.54433 590.223661-195.54433 1153.089344 69.994992 1153.089344 475.288265 1153.123414 786.174372 840.022777 908.178004 590.223661 721.033086L590.223661 721.033086Z"  horiz-adv-x="1159" />

    
    <glyph glyph-name="weizhi" unicode="&#58915;" d="M511.318478 841.026968c-187.44002 0-339.387687-151.952784-339.387687-339.38871 0-141.897777 282.960537-565.934376 339.387687-565.644781 55.540967-0.289596 339.38871 425.650353 339.38871 565.644781C850.707189 689.0741840000001 698.755428 841.026968 511.318478 841.026968zM511.318478 20.839886999999976c-47.022966-0.240477-282.82239 362.550223-282.82239 480.798371 0 156.198481 126.624932 282.823414 282.82239 282.823414s282.821367-126.624932 282.821367-282.823414C794.139845 384.971118 557.603641 20.599410000000034 511.318478 20.839886999999976zM511.318478 643.049964c-78.099752 0-141.411707-63.311954-141.411707-141.411707 0-78.097706 63.311954-141.411707 141.411707-141.411707 78.098729 0 141.410684 63.314001 141.410684 141.411707C652.729162 579.7390330000001 589.417207 643.049964 511.318478 643.049964zM511.318478 416.794917c-46.859237 0-84.847433 37.984103-84.847433 84.84334 0 46.862307 37.988196 84.84641 84.847433 84.84641s84.84641-37.984103 84.84641-84.84641C596.164888 454.777997 558.177716 416.794917 511.318478 416.794917z"  horiz-adv-x="1024" />

    
    <glyph glyph-name="shezhi" unicode="&#4160;" d="M895.906 325.31500000000005c-84.577-22.042-147.18-99.073-147.18-190.461 0-17.456 2.324-34.783 6.846-51.495l-101.906-58.288c-36.595 37.301-87.21 59.197-140.646 59.197-53.435 0-104.051-21.901-140.641-59.197l-101.906 58.283c4.521 16.716 6.846 34.045 6.845 51.499 0 91.381-62.607 168.418-147.184 190.46v113.846c84.577 22.041 147.184 99.075 147.184 190.461 0 17.461-2.324 34.784-6.845 51.496l101.906 58.288c36.59-37.296 87.206-59.19 140.641-59.191 53.436 0 104.051 21.895 140.646 59.191l101.901-58.288c-4.52-16.712-6.845-34.039-6.845-51.496 0-91.385 62.607-168.419 147.184-190.461v-113.846M945.517 282.039v200.397c-81.288 0-147.185 65.897-147.185 147.184 0 26.604 7.058 51.553 19.406 73.089l-176.934 101.204c-25.382-44.269-73.099-74.097-127.783-74.097-54.681 0-102.402 29.827-127.778 74.097l-176.934-101.204c12.343-21.532 19.407-46.486 19.406-73.089 0-81.288-65.897-147.184-147.185-147.184v-200.397c81.289 0 147.185-65.897 147.185-147.185 0-26.601-7.059-51.552-19.406-73.089l176.934-101.204c25.376 44.27 73.099 74.096 127.778 74.096 54.685 0 102.407-29.825 127.784-74.096l176.935 101.205c-12.347 21.537-19.406 46.488-19.406 73.089 0 81.288 65.896 147.184 147.184 147.184v0 0zM389.002 382.23400000000004c0 68.389 55.632 124.025 124.019 124.025 68.389 0 124.024-55.636 124.024-124.025 0-68.38-55.637-124.018-124.024-124.018-68.387-0.001-124.019 55.636-124.019 124.018v0zM587.433 382.23400000000004c0 41.036-33.381 74.416-74.413 74.416-41.033 0-74.413-33.38-74.413-74.416 0-41.026 33.385-74.412 74.413-74.412 41.032 0 74.413 33.38 74.413 74.412v0zM587.433 382.23400000000004z"  horiz-adv-x="1024" />

    
    <glyph glyph-name="biaoqing" unicode="&#58886;" d="M872.802928 140.00594 872.864326 140.00594 872.864326 140.375354ZM807.273469 679.272957c-162.808016 162.836669-427.736874 162.836669-590.544891 0-162.836669-162.806993-162.836669-427.736874 0-590.543867 162.808016-162.837692 427.737898-162.837692 590.544891 0C970.110137 251.537106 970.110137 516.465964 807.273469 679.272957M764.893242 131.07964c-139.444912-139.443889-366.370225-139.414213-505.798764 0-139.459239 139.473565-139.459239 366.354875 0 505.827417 139.428539 139.429563 366.354875 139.460262 505.798764 0C904.336108 497.478518 904.336108 270.523529 764.893242 131.07964M381.724423 427.97863c24.783453 0 44.953841 20.169365 44.953841 44.967144 0 24.828478-20.170388 45.027519-44.953841 45.027519-24.842805 0-45.013193-20.199041-45.013193-45.027519C336.71123 448.147996 356.881618 427.97863 381.724423 427.97863M640.680243 427.904952c24.812105 0 45.010123 20.213367 45.010123 45.01217 0 24.827455-20.198018 44.99682-45.010123 44.99682-24.785499 0-44.953841-20.169365-44.953841-44.99682C595.726401 448.11832 615.894743 427.904952 640.680243 427.904952M642.245901 276.941706l-2.453888-0.798179c-40.310078-18.248619-83.548858-27.5341-128.411625-27.5341-46.343491 0-90.173742 9.375531-130.305765 27.799136l-2.425236 0.741897c-1.508353 0.413416-3.548826 1.003863-6.092765 1.003863-14.757099 0-26.734898-11.977799-26.734898-26.675546 0-6.978948 3.282766-13.988596 8.695033-19.253506l-0.325411-1.62501 6.831592-3.076058c47.911196-21.679765 100.021018-33.095769 150.681838-33.095769 51.608402 0 102.180194 11.120268 150.978597 33.361829 8.575306 4.703115 13.928221 13.721513 13.928221 23.511483C676.611593 268.541385 661.027663 282.709059 642.245901 276.941706"  horiz-adv-x="1024" />

    
    <glyph glyph-name="shenhe" unicode="&#4137;" d="M469.2 545.9C414 519.6 370.3 474.3 346 418.2c-7-16.2 0.5-35.1 16.7-42.1 4.1-1.8 8.4-2.6 12.7-2.6 12.4 0 24.2 7.2 29.4 19.3 18.1 41.9 50.8 75.7 92 95.4 16 7.6 22.7 26.7 15.1 42.6C504.3 546.7 485.2 553.5 469.2 545.9zM797.6 350.20000000000005c-17.7 0-32-14.3-32-32 0-103.7-84.4-188.1-188.1-188.1-17.7 0-32-14.3-32-32s14.3-32 32-32c67.3 0 130.6 26.2 178.2 73.8 47.6 47.6 73.8 110.9 73.8 178.2C829.6 335.9 815.3 350.20000000000005 797.6 350.20000000000005zM1014.6-72.39999999999998L869.4 72.79999999999995c24.9 29.5 45.1 62.3 60.2 97.9 20 47.3 30.2 97.6 30.2 149.4s-10.2 102.1-30.2 149.4c-19.3 45.7-47 86.8-82.3 122-35.2 35.2-76.3 62.9-122 82.3-47.3 20-97.6 30.2-149.4 30.2s-102.1-10.2-149.4-30.2c-45.7-19.3-86.8-47-122-82.3-35.2-35.2-62.9-76.3-82.3-122-20-47.3-30.2-97.6-30.2-149.4s10.2-102.1 30.2-149.4c19.3-45.7 47-86.8 82.3-122 35.2-35.2 76.3-62.9 122-82.3 47.3-20 97.6-30.2 149.4-30.2s102.1 10.2 149.4 30.2c36.1 15.3 69.2 35.7 98.9 61l145.2-145.2c6.2-6.2 14.4-9.4 22.6-9.4s16.4 3.1 22.6 9.4C1027.1-105.20000000000005 1027.1-84.89999999999998 1014.6-72.39999999999998zM575.9 0.2999999999999545C399.5 0.2999999999999545 256 143.79999999999995 256 320.20000000000005s143.5 319.9 319.9 319.9 319.9-143.5 319.9-319.9S752.2 0.2999999999999545 575.9 0.2999999999999545zM319-64L140-64c-41.9 0-76 34.1-76 76l0 744c0 41.9 34.1 76 76 76l680 0c41.9 0 76-34.1 76-76l0-92.7c0-17.7 14.3-32 32-32s32 14.3 32 32l0 92.7c0 77.2-62.8 140-140 140L140 896c-77.2 0-140-62.8-140-140l0-744c0-77.2 62.8-140 140-140l179 0c17.7 0 32 14.3 32 32S336.7-64 319-64z"  horiz-adv-x="1024" />

    
    <glyph glyph-name="arrow-right" unicode="&#4114;" d="M782.8 384.9L351.9-46c-22.8-22.8-59.8-22.8-82.6 0-22.8 22.8-22.8 59.8 0 82.6L617.5 384.9 269.2 733.2c-22.8 22.8-22.8 59.8 0 82.6 22.8 22.8 59.8 22.8 82.6 0L782.8 384.9 782.8 384.9zM782.8 384.9"  horiz-adv-x="1024" />

    
    <glyph glyph-name="add_circle" unicode="&#58940;" d="M511.998 829.458c-246.018 0-445.457-199.44-445.457-445.458 0-246.017 199.439-445.457 445.457-445.457 246.019 0 445.46 199.44 445.46 445.457 0 246.018-199.44 445.458-445.46 445.458zM511.998-33.809c-230.747 0-417.81 187.056-417.81 417.809 0 230.754 187.062 417.81 417.81 417.81 230.748 0 417.809-187.056 417.809-417.81 0-230.752-187.060-417.809-417.809-417.809zM775.989 419.199h-228.795v228.785c0 19.438-15.755 35.194-35.182 35.194-19.448 0-35.204-15.756-35.204-35.194v-228.784l-228.779 0c-19.448 0-35.204-15.756-35.204-35.204 0-19.438 15.756-35.194 35.204-35.194h228.779v-228.773c0-19.447 15.756-35.203 35.204-35.203 19.426 0 35.182 15.756 35.182 35.203v228.772h228.795c19.426 0 35.183 15.756 35.183 35.194 0 19.448-15.756 35.204-35.183 35.204z"  horiz-adv-x="1024" />

    
    <glyph glyph-name="yzm" unicode="&#4134;" d="M943.1 724c-2.4 0.2-245.1 25.3-413.8 147.8-5.1 3.7-11 5.6-17.3 5.6-6.2 0-12.2-1.9-17.3-5.6C326.9 750 83.3 724.2 80.9 724c-15.2-1.4-26.6-14.1-26.6-29.3 0-6.7 0.6-165.8 54.8-344.4 32.1-105.8 76.4-196.4 131.9-269.2 70.3-92.3 158.5-156 262-189.2 2.9-0.9 5.9-1.4 9-1.4s6.1 0.5 8.9 1.4c103.6 33.2 191.7 96.8 262 189.2 55.4 72.7 99.8 163.2 131.9 269.2 54.1 178.6 54.8 337.7 54.8 344.4C969.7 709.9 958.3 722.5 943.1 724zM910.1 668.8l-0.1-1.6c-2.9-58.1-13.4-174.4-51.4-299.9-66.7-220.1-183.1-360.1-346-416.1L512-49l-0.6 0.2C349 7.100000000000023 232.7 146.60000000000002 165.8 365.9c-39.8 130.5-49.4 254.2-51.8 301.4l-0.1 1.6 1.5 0.2c70.6 10.3 250.5 44.8 395.5 142.4l0.9 0.7 1-0.7C658 713.9 837.9 679.4 908.5 669L910.1 668.8zM641.8 545L467 315.70000000000005l-89 76.1c-5.3 4.5-12.1 7-19.1 7-8.6 0-16.8-3.7-22.4-10.3-10.5-12.3-9.1-31 3.3-41.5l112.7-96.4c5.2-4.4 12.4-7 19.6-7 0.9 0 1.8 0 2.7 0.1 8 0.8 15.4 5 20.3 11.4l193.7 254c4.8 6.3 6.8 14 5.7 21.8-1 7.8-5.1 14.7-11.3 19.5C670.1 560.4 651.6 557.9 641.8 545z"  horiz-adv-x="1024" />

    
    <glyph glyph-name="shouji-copy" unicode="&#4164;" d="M514.553 81.18299999999999c-28.167 0-51.083-22.914-51.083-51.084 0-28.167 22.916-51.084 51.083-51.084 28.169 0 51.086 22.915 51.086 51.084-0.001 28.17-22.917 51.084-51.086 51.084zM767.288 885.26h-505.468c-42.523 0-77.118-34.595-77.118-77.118v-848.284c0-42.524 34.595-77.118 77.118-77.118h505.467c42.523 0 77.117 34.594 77.117 77.118v848.284c0.001 42.523-34.593 77.118-77.116 77.118zM261.82 833.847h505.467c14.175 0 25.707-11.533 25.707-25.707v-635.529h-556.879v635.53c0 14.174 11.532 25.706 25.706 25.706zM767.288-65.846h-505.468c-14.174 0-25.707 11.531-25.707 25.706v156.941h556.88v-156.942c0.001-14.175-11.531-25.705-25.706-25.705z"  horiz-adv-x="1024" />

    
    <glyph glyph-name="radio01" unicode="&#4113;" d="M510.54537 833.634604c-247.564375 0-448.16002-200.594621-448.16002-448.16002s200.595644-448.161043 448.16002-448.161043S958.70539 137.91123200000004 958.70539 385.475608 758.109746 833.634604 510.54537 833.634604L510.54537 833.634604zM510.54537-25.410483999999997c-226.449475 0-410.885068 184.219675-410.885068 410.886091 0 226.449475 184.218652 410.885068 410.885068 410.885068 226.449475 0 410.885068-184.219675 410.885068-410.885068C921.430438 159.02510900000004 736.994845-25.410483999999997 510.54537-25.410483999999997L510.54537-25.410483999999997zM510.54537-25.410483999999997M510.54537 730.213139c-190.470029 0-344.737532-154.267503-344.737532-344.737532 0-190.463889 154.267503-344.737532 344.737532-344.737532 190.463889 0 344.737532 154.273642 344.737532 344.737532C855.282902 575.945637 701.00926 730.213139 510.54537 730.213139L510.54537 730.213139zM510.54537 730.213139"  horiz-adv-x="1024" />

    
    <glyph glyph-name="radio02" unicode="&#4112;" d="M510.54537 833.634604c-247.564375 0-448.16002-200.594621-448.16002-448.16002s200.595644-448.161043 448.16002-448.161043S958.70539 137.91123200000004 958.70539 385.475608 758.109746 833.634604 510.54537 833.634604L510.54537 833.634604zM510.54537-25.410483999999997c-226.449475 0-410.885068 184.219675-410.885068 410.886091 0 226.449475 184.218652 410.885068 410.885068 410.885068 226.449475 0 410.885068-184.218652 410.885068-410.885068C921.430438 159.02510900000004 736.994845-25.410483999999997 510.54537-25.410483999999997L510.54537-25.410483999999997zM510.54537-25.410483999999997"  horiz-adv-x="1024" />

    
    <glyph glyph-name="icon" unicode="&#58927;" d="M843.693959 602.390939 425.255869 183.943638 186.145026 423.052434 66.579883 303.495478 425.255869-55.165158 963.260126 482.825796Z"  horiz-adv-x="1024" />

    
    <glyph glyph-name="sousuo" unicode="&#32785;" d="M998.417847-72.92352300000005L738.389131 183.03242699999998c68.050929 73.967263 109.909294 171.800228 109.909294 279.479317 0 230.345352-189.746575 417.036095-423.778057 417.036095-234.030475 0-423.77705-186.690742-423.77705-417.036095 0-230.297023 189.746575-416.986758 423.77705-416.986758 101.131452 0 193.870691 34.971414 266.723355 93.126882l261.095991-256.924553c12.70864-12.514315 33.370499-12.514315 46.078132 0C1011.174816-105.75937699999997 1011.174816-85.43683099999998 998.417847-72.92352300000005L998.417847-72.92352300000005 998.417847-72.92352300000005zM424.520368 109.64511800000002c-198.040115 0-358.5393 157.977996-358.5393 352.86562 0 194.88863 160.499184 352.866627 358.5393 352.866627C622.562497 815.377365 783.110011 657.399368 783.110011 462.510738 783.110011 267.623114 622.562497 109.64511800000002 424.520368 109.64511800000002L424.520368 109.64511800000002 424.520368 109.64511800000002z"  horiz-adv-x="1024" />

    
    <glyph glyph-name="fenxiang" unicode="&#58892;" d="M279.035134 290.85253c0 0 194.483436 175.35682 379.060245 123.650181l0-137.13838 244.432035 251.774257L657.908114 711.231833l0-142.336776C657.908114 568.895057 342.057493 596.599026 279.035134 290.85253zM682.779571 130.379699 194.411805 130.379699 194.411805 521.493467l126.062114 0c59.273988 61.623499 134.128837 72.815399 134.128837 72.815399l-333.131193 0.021489 0-537.562189 634.07736 0L755.548922 296.257633l-72.76935-72.672136L682.779571 130.379699z"  horiz-adv-x="1024" />

    
    <glyph glyph-name="shoucang" unicode="&#8209;" d="M953.903525 521.4023930000001c-0.539282-7.172353-1.065262-14.34573-1.620917-21.517059-2.868327-36.999682-13.000082-72.074525-29.305443-105.235786-26.372647-53.638641-59.652612-102.738919-98.68765-148.022265-42.319851-49.093115-88.287789-94.559633-136.064932-138.256854-45.841048-41.926902-93.324502-81.921801-141.966339-120.555703-12.014638-9.54233-25.199938-14.910595-40.799218-13.325493-10.536984 1.070378-19.735483 5.29254-27.90863 11.768021-86.809111 68.778456-170.041768 141.531434-246.068302 222.239594-43.699268 46.390563-82.991156 96.128361-114.648157 151.665235-18.669198 32.750915-34.576493 66.61928-41.974997 103.814414-2.946099 14.811334-4.137227 29.971615-6.131651 44.972261-0.206708 1.553379-0.448208 3.101641-0.673335 4.652973 0 8.378831 0 16.757662 0 25.136493 0.286526 1.685385 0.677429 3.361561 0.843204 5.059226 0.701988 7.181563 1.02126 14.415314 2.045589 21.548782 7.463995 51.965535 26.5374 99.119485 59.960627 139.835815 43.541679 53.043077 98.837052 85.024465 167.968549 91.090625 35.568077 3.121084 69.935816-2.306532 103.06433-15.488763 37.759999-15.025205 69.594031-38.372959 96.105848-69.071122 4.311189-4.992711 8.40953-10.168594 12.904914-15.621792 1.2689 1.573845 2.355651 2.871397 3.387144 4.209882 21.905916 28.40084 48.380894 51.52449 79.980589 68.560492C640.726803 793.885298 690.157609 802.747129 742.156914 793.980465c60.551074-10.208503 109.529579-40.862663 148.105153-88.101547 36.941354-45.237297 57.025785-97.480148 62.065568-155.578358 0.60989-7.024997 1.054005-14.06432 1.574868-21.097504C953.903525 526.603859 953.903525 524.002614 953.903525 521.4023930000001zM898.728902 524.947126c-0.6191 8.346085-0.99363 16.718777-1.89721 25.03314-5.063319 46.553269-22.228257 88.057545-53.768601 122.822326-42.201148 46.514383-94.556563 69.004607-157.803026 62.721507-43.496653-4.320399-80.099293-23.566742-111.041002-54.027497-20.995173-20.669762-36.102243-45.25367-47.571459-72.210625-2.979868-7.003508-7.963369-11.42726-15.755846-11.453866-7.812943-0.026606-12.828167 4.431939-15.813151 11.397584-9.66615 22.556739-21.629623 43.738154-38.071084 62.10343-35.843346 40.037878-79.982636 63.324234-134.297682 65.148789-50.1594 1.684362-94.006024-15.162328-129.962957-49.536206-59.815317-57.181327-79.199807-127.835504-64.35061-208.373795 5.638417-30.582529 19.49296-58.090023 34.577516-84.993766 30.517037-54.429657 69.413929-102.484116 112.274086-147.477866 71.876004-75.453483 150.243863-143.722332 231.604892-208.66646 3.069919-2.450818 4.858658-2.50403 7.960299-0.030699 45.74895 36.479843 90.509387 74.122161 133.786029 113.508193 47.140647 42.902112 92.65833 87.404676 134.357034 135.719054 37.751812 43.741223 69.933769 91.109044 94.385671 143.530974C891.321188 460.133981 898.244878 491.809401 898.728902 524.947126z"  horiz-adv-x="1024" />

    
    <glyph glyph-name="yijianfankui" unicode="&#4129;" d="M989.845 502.963c-1.478 13.473-12.889 23.96-26.755 23.96-13.865 0-25.276-10.487-26.752-23.96l-0.173 0 0-467.327c0-42.895-34.894-77.787-77.788-77.787l-691.11 0c-42.89 0-77.786 34.891-77.786 77.787l0 696.722c0 42.893 34.896 77.788 77.786 77.788l463.972 0.038c14.528 0.394 26.191 12.265 26.191 26.888s-11.663 26.496-26.191 26.888l0 0.039-463.972 0c-72.587 0-131.639-59.054-131.639-131.639l0-696.724c0-72.586 59.053-131.637 131.639-131.637l691.11 0c72.588 0 131.639 59.052 131.639 131.637l0 467.326-0.172 0zM296.383 220.952l-0.122-0.502c-2.204-9.35-4.103-26.841 7.958-38.894 7.478-7.491 17.05-9.599 25.465-9.599 5.136 0 9.846 0.788 13.387 1.618l147.077 38.835 468.748 468.748c16.388 16.387 25.413 38.174 25.413 61.347 0 23.175-9.025 44.963-25.413 61.349l-32.439 32.439c-33.831 33.827-88.87 33.836-122.703 0.001l-468.792-468.793-38.578-146.551zM378.206 323.259l67.73-67.722-91.081-23.352 23.351 91.074zM410.621 367.009l366.34 366.337 78.983-78.982-366.339-366.339-78.983 78.983zM888.374 798.219l32.441-32.441c12.832-12.832 12.832-33.709 0-46.543l-26.796-26.792-78.978 78.982 26.792 26.794c12.834 12.836 33.715 12.828 46.54 0.001z"  horiz-adv-x="1024" />

    
    <glyph glyph-name="kehu" unicode="&#12322;" d="M1023.445368 34.34036500000002c0 149.362796-89.360214 277.04685-215.687364 329.140299 61.193711 42.330084 101.504812 114.445542 101.504812 196.358133 0 111.830995-75.128071 205.427696-175.939081 229.785453-0.958838 0.231267-1.820462 0.099261-2.681062-0.231267-1.158383 0.099261-2.251274 0.364297-3.408633 0.364297-21.545712 0-39.020712-18.10331-39.020712-40.410362 0-20.156062 14.297634-36.703947 32.929993-39.748283 3.309372-1.423419 7.645121-2.482541 7.810896-2.548032 58.414411-20.519336 100.446713-77.677127 100.446713-145.093563 0-75.160817-52.29197-137.64594-121.263831-150.718677-0.099261 0-0.164752-0.198521-0.265036-0.231267-22.935362-1.52268-41.170678-21.049409-41.170678-45.176922 0-24.491811 18.765389-44.349067 42.197054-45.308929 0.165776-0.066515 0.297782-0.330528 0.463558-0.364297 138.672316-14.628162 236.999762-136.952138 236.999762-285.817608 0-22.042016 17.243733-39.914058 38.524408-39.914058 20.784372 0 37.564547 17.044188 38.391379 38.324864 0.032746 0.231267 0.165776 0.397043 0.165776 0.595564 0 0.065492-0.033769 0.132006-0.033769 0.231267l0 0c0 0.265036 0.033769 0.497327 0.033769 0.728594L1023.443321 34.34036500000002 1023.445368 34.34036500000002 1023.445368 34.34036500000002 1023.445368 34.34036500000002 1023.445368 34.34036500000002 1023.445368 34.34036500000002zM561.589418 356.82815100000005c73.042573 50.702776 121.197316 136.918369 121.197316 234.816027 0 156.01531-122.157177 282.508235-272.810363 282.508235-150.686954 0-272.844132-126.492926-272.844132-282.508235 0-97.930403 48.154743-184.113251 121.197316-234.816027C107.313098 294.44228799999996 0.511653 141.70360500000004 0.511653-36.98203000000001c0-10.061147 0.562818-19.956517 1.291412-29.819143l0.065492 0c0-21.744233 17.044188-39.35124 38.027082-39.35124 21.016663 0 38.028105 17.607006 38.028105 39.35124 0 1.223874-0.231267 2.38328-0.364297 3.607154-0.727571 8.671497-1.356904 17.34197-1.356904 26.211988 0 190.865026 149.428288 345.588923 333.741084 345.588923 184.344518 0 333.773829-154.723897 333.773829-345.588923 0-9.200546-0.629333-18.269086-1.423419-27.238364 0-0.463558-0.13303-0.893346-0.13303-1.356904 0-0.164752 0.032746-0.297782 0.032746-0.429789 0-0.265036 0-0.529049-0.032746-0.76134l0.13303 0c0.62831-21.181415 17.309224-38.192857 37.894052-38.192857 20.585851 0 37.266765 17.011442 37.895075 38.192857l0.099261 0c0.694825 9.829879 1.191128 19.757996 1.191128 29.786397C819.407322 141.70360500000004 712.606901 294.44228799999996 561.589418 356.82815100000005L561.589418 356.82815100000005 561.589418 356.82815100000005 561.589418 356.82815100000005zM409.976372 388.732791c-108.256586 0-195.994859 90.848101-195.994859 202.911386 0 112.063285 87.738273 202.912409 195.994859 202.912409 108.22384 0 195.962114-90.848101 195.962114-202.912409C605.938486 479.581915 518.200212 388.732791 409.976372 388.732791L409.976372 388.732791 409.976372 388.732791 409.976372 388.732791z"  horiz-adv-x="1039" />

    
    <glyph glyph-name="jifen" unicode="&#4136;" d="M433.68843 503.051296c101.861174 0 207.804288 22.402015 271.42708 65.115205l0-77.763622 58.948509 0L764.064018 660.668163c0 102.359862-170.169196 157.621732-330.275851 157.621732C273.676647 818.289895 103.412579 763.0280250000001 103.412579 660.668163l0-464.692803c0-102.359862 170.16433-157.621732 330.275851-157.621732l0 58.843906c-168.174446 0-271.431945 57.555833-271.431945 98.777826L162.256485 335.671102c63.627657-42.613453 169.471033-65.12007 271.431945-65.12007l0 58.948509c-168.174446 0-271.431945 57.550967-271.431945 98.771745L162.256485 568.0667639999999C225.884142 525.453311 331.827255 503.051296 433.68843 503.051296L433.68843 503.051296zM433.68843 759.445989c168.174446 0 271.42708-57.557049 271.42708-98.777826 0-41.221993-103.25385-98.772961-271.42708-98.772961-168.174446 0-271.431945 57.550967-271.431945 98.772961C162.256485 701.88894 265.613722 759.445989 433.68843 759.445989L433.68843 759.445989zM697.747098 470.789866c-146.266253 0-222.736937-56.258029-222.736937-111.819112l0-298.614061c0-55.556218 76.570421-111.815463 222.736937-111.815463 145.177655 0 221.544952 55.461345 222.741802 110.622262l0.099737 0L920.588637 358.97075400000006C920.4889 414.531837 844.018216 470.789866 697.747098 470.789866L697.747098 470.789866zM697.747098 411.942311c108.137339 0 163.893031-37.140054 163.893031-52.971557s-55.755693-52.971557-163.893031-52.971557c-108.132473 0-163.893031 37.140054-163.893031 52.971557S589.613408 411.942311 697.747098 411.942311L697.747098 411.942311zM697.747098 7.385135999999989c-108.132473 0-163.893031 37.140054-163.893031 52.971557l0 71.296497c37.339529-20.316041 92.207314-33.857231 163.893031-33.857231 71.690582 0 126.45863 13.541189 163.893031 33.857231l0-71.296497C861.640129 44.52640599999995 805.884436 7.385135999999989 697.747098 7.385135999999989L697.747098 7.385135999999989zM697.747098 156.74446799999998c-108.132473 0-163.893031 37.140054-163.893031 52.971557l0 71.291632c37.339529-20.311176 92.207314-33.852366 163.893031-33.852366 71.690582 0 126.45863 13.541189 163.893031 33.852366l0-71.291632C861.640129 193.88452199999995 805.884436 156.74446799999998 697.747098 156.74446799999998L697.747098 156.74446799999998zM697.747098 156.74446799999998"  horiz-adv-x="1024" />

    
    <glyph glyph-name="shouye" unicode="&#4097;" d="M1016.428071 420.365704c0.003054 0.182214 0.026467 0.35832 0.026467 0.541552 0 0.228022-0.028503 0.446882-0.033592 0.673886-0.011197 0.335925-0.027485 0.668796-0.050898 1.003703-0.519157 8.742189-5.026657 16.394149-11.749225 21.167335L530.825339 869.65191c-0.132334 0.151675-0.242273 0.314548-0.376643 0.463169-5.300486 5.895989-12.537121 8.997695-19.882677 9.24913-0.379697 0.018323-0.76143 0.004072-1.142144 0.007126-0.380715-0.002036-0.762448 0.011197-1.143162-0.007126-7.344538-0.251435-14.581173-3.35314-19.882677-9.24913-0.13437-0.148621-0.244309-0.311494-0.374607-0.463169L11.674914 441.458728c-0.180178-0.162873-0.334907-0.342033-0.508977-0.506941-0.35323-0.333889-0.696281-0.674903-1.031187-1.026098-0.320656-0.335925-0.631131-0.675921-0.932446-1.02508-0.285027-0.329817-0.559875-0.66676-0.829632-1.010828-0.304368-0.388858-0.601611-0.780771-0.883584-1.182863-0.235147-0.334907-0.460115-0.677957-0.681011-1.023044-0.26874-0.421433-0.530354-0.843884-0.775681-1.276514-0.206645-0.364428-0.39802-0.735981-0.588377-1.110588-0.216824-0.426523-0.427541-0.854063-0.62197-1.289748-0.182214-0.4082-0.347122-0.824543-0.509995-1.241904-0.161855-0.419397-0.320656-0.838794-0.463169-1.264299-0.148621-0.443828-0.279937-0.893764-0.406164-1.346753-0.117065-0.424487-0.230058-0.847956-0.327781-1.274478-0.103831-0.454007-0.191375-0.911069-0.272812-1.372202-0.080418-0.455025-0.150657-0.911069-0.208681-1.369148-0.05497-0.434666-0.098742-0.869333-0.133352-1.310107-0.040718-0.506941-0.064131-1.011846-0.077365-1.520823-0.00509-0.230058-0.033592-0.45299-0.033592-0.684065 0-0.186286 0.023413-0.365445 0.028503-0.551731 0.009162-0.519157 0.0397-1.037295 0.078382-1.556452 0.030539-0.416343 0.063113-0.831668 0.111975-1.242922 0.058023-0.485564 0.137424-0.968074 0.221914-1.450584 0.074311-0.43263 0.147603-0.863225 0.241255-1.287712 0.101795-0.455025 0.224968-0.904961 0.349158-1.355915 0.119101-0.43263 0.235147-0.865261 0.375625-1.289748 0.142514-0.436702 0.309458-0.867297 0.474367-1.297891 0.161855-0.420415 0.320656-0.84083 0.501851-1.252083 0.18425-0.419397 0.391912-0.828615 0.597539-1.239868 0.204609-0.4082 0.407182-0.815381 0.631131-1.211365 0.21886-0.38784 0.458079-0.766519 0.697298-1.146216 0.254488-0.405146 0.511013-0.80622 0.784843-1.198132 0.245327-0.34814 0.505923-0.687119 0.768555-1.027116 0.310476-0.402092 0.62706-0.798076 0.958913-1.180827 0.123172-0.144549 0.22904-0.298261 0.356284-0.440774 0.159819-0.177124 0.335925-0.328799 0.497779-0.500833 0.339997-0.359338 0.686101-0.709514 1.044421-1.050529 0.330835-0.314548 0.664724-0.618916 1.006756-0.914123 0.336943-0.290117 0.679993-0.571072 1.031187-0.84592 0.381733-0.300296 0.767537-0.591431 1.162503-0.869333 0.34305-0.241255 0.693227-0.469277 1.046457-0.696281 0.413289-0.26365 0.828615-0.520174 1.253101-0.76143 0.371553-0.211734 0.752268-0.407182 1.135019-0.601611 0.418379-0.211734 0.836758-0.419397 1.263281-0.608736 0.416343-0.187304 0.842866-0.356284 1.270407-0.52221 0.409218-0.158801 0.819453-0.31353 1.234778-0.451972 0.454007-0.151675 0.914123-0.286045 1.377292-0.414307 0.413289-0.115029 0.825561-0.224968 1.241904-0.31862 0.464187-0.106885 0.933464-0.197483 1.405794-0.279937 0.44281-0.078382 0.886638-0.147603 1.332502-0.204609 0.445864-0.055987 0.893764-0.100777 1.344717-0.135388 0.494726-0.0397 0.987415-0.063113 1.483159-0.075329 0.236165-0.006108 0.466223-0.035628 0.704424-0.035628l100.987143 0c-0.117065-1.481123-0.194429-2.973444-0.194429-4.485105l0-448.245858 0-0.001018c0-30.945801 25.086458-56.031241 56.031241-56.031241l196.124104 0c0.018323 0 0.036646 0.001018 0.053952 0.001018 30.920352 0.029521 55.97729 25.101727 55.97729 56.030223l0 232.846794 0 23.870003c0 15.472901 12.542211 28.015112 28.015112 28.015112l84.046353 0c15.471883 0 28.015112-12.542211 28.015112-28.015112l0-23.870003 0-232.846794c0-30.928496 25.056937-56.000703 55.975254-56.030223 0.020359 0 0.037664-0.001018 0.055987-0.001018l196.125122 0c30.943765 0 56.030223 25.08544 56.030223 56.031241l0 0.001018 0 448.245858c0 1.608367-0.083472 3.195358-0.215806 4.769114l97.039517 0c8.9356-1.270407 18.321136 1.785491 24.806521 9.002785 4.182773 4.653068 6.488439 10.324089 7.025918 16.11014 0.003054 0.033592 0.006108 0.067185 0.009162 0.100777C1016.382264 418.858114 1016.421964 419.6114 1016.428071 420.365704zM859.581722 448.923385c-6.432451 0-12.340656-2.191655-17.07007-5.836948-6.564785-5.060249-10.826959-12.947357-10.928754-21.853436-0.002036-0.108921-0.016287-0.214788-0.016287-0.324727s0.014251-0.215806 0.016287-0.324727l0-451.256965c0-15.472901-12.542211-28.015112-28.015112-28.015112L663.474922-58.68853100000001c-15.25404 0-27.633379 12.196107-27.982537 27.366675L635.492385 224.67321200000004c0 0.435684-0.022395 0.865261-0.032575 1.297891-0.692209 30.34419-25.487532 54.73335-55.998667 54.73335L439.384568 280.70445299999994c-30.511135 0-55.306458-24.38916-55.998667-54.73335-0.01018-0.433648-0.032575-0.863225-0.032575-1.297891l0-255.996086c-0.34814-15.16955-12.729515-27.366675-27.982537-27.366675L215.276909-58.689549000000056c-15.472901 0-28.015112 12.542211-28.015112 28.015112L187.261797 420.339237c0.001018 0.095688 0.014251 0.189339 0.014251 0.285027 0 0.095688-0.013233 0.189339-0.014251 0.284009-0.090598 9.058773-4.489177 17.068034-11.236176 22.123194-4.677499 3.505834-10.468639 5.607909-16.764684 5.607909l-55.781842 0 405.94478 364.905965L915.05207 448.923385 859.581722 448.923385z"  horiz-adv-x="1032" />

    
    <glyph glyph-name="weixin" unicode="&#4118;" d="M506.942 550.079c25.259 0 42.134 16.916 42.134 42.107 0 25.477-16.848 41.956-42.134 41.956-25.299 0-50.668-16.48-50.668-41.956 0.028-25.204 25.409-42.107 50.668-42.107l0 0zM506.942 550.079zM271.257 634.143c-25.259 0-50.79-16.48-50.79-41.956 0-25.19 25.532-42.107 50.79-42.107 25.163 0 42.012 16.916 42.012 42.107-0.014 25.477-16.834 41.956-42.012 41.956l0 0zM271.257 634.143zM1010.654 280.50800000000004c0 133.202-123.563 246.702-275.237 258.512 0.205 1.652 0.301 3.373-0.068 5.092-30.406 141.79-182.886 248.695-354.7 248.695-194.15 0-352.119-135.387-352.119-301.793 0-89.279 45.574-169.725 131.946-233.158l-30.106-90.508c-1.939-5.885-0.177-12.37 4.506-16.452 2.853-2.458 6.445-3.741 10.076-3.741 2.335 0 4.697 0.546 6.867 1.625l113.036 56.565 13.926-2.827c34.802-7.154 64.853-13.353 101.868-13.353 10.895 0 40.878 3.987 43.404 7.182 40.755-101.99 153.094-175.61 285.273-175.61 33.86 0 68.13 8.164 98.891 15.866l87.136-47.636c2.307-1.257 4.847-1.911 7.359-1.911 3.441 0 6.881 1.161 9.639 3.413 4.847 3.932 6.841 10.404 5.038 16.33l-22.255 74.001c74.602 58.955 115.521 129.488 115.521 199.708l0 0zM409.798 230.25c-9.626-0.833-19.388-1.243-29.082-1.243-32.686 0-60.334 5.652-92.31 12.26l-18.582 3.755c-3.195 0.683-6.567 0.245-9.503-1.269l-81.687-40.892 21.231 63.775c2.076 6.24-0.205 13.053-5.57 16.821-82.07 57.207-123.659 126.894-123.659 207.093 0 144.179 139.087 261.516 310.067 261.516 151.142 0 284.959-91.955 312.579-214.261-158.475-2.076-286.706-113.487-286.706-250.32 0-19.893 3.018-39.171 8.11-57.767-1.542 0.382-3.168 0.683-4.887 0.532l0 0zM860.371 107.30100000000004c-4.875-3.673-6.935-10.007-5.188-15.852l13.804-45.903-56.647 30.993c-2.157 1.188-4.588 1.803-7.004 1.803-1.188 0-2.389-0.15-3.564-0.464-30.379-7.674-61.822-15.593-92.433-15.593-142.186 0-257.857 97.717-257.857 217.811 0 120.095 115.658 217.771 257.857 217.771 139.469 0 257.325-99.724 257.325-217.771 0-59.87-37.738-121.255-106.291-172.797l0 0zM868.181 98.822zM616.454 389.994c-16.848 0-33.696-16.971-33.696-33.792 0-16.944 16.848-33.669 33.696-33.669 25.313 0 42.038 16.725 42.038 33.669 0 16.848-16.725 33.792-42.038 33.792l0 0zM616.454 389.994zM801.58 389.994c-16.603 0-33.451-16.971-33.451-33.792 0-16.944 16.848-33.669 33.451-33.669 25.231 0 42.257 16.725 42.257 33.669 0 16.848-16.998 33.792-42.257 33.792l0 0zM801.58 389.994z"  horiz-adv-x="1024" />

    
    <glyph glyph-name="guanzhu1" unicode="&#58909;" d="M238.976 724.224c24.448 45.568 61.824 76.8 110.72 94.848 40.832 15.232 83.328 18.688 126.592 15.616 33.024-2.432 64.512-10.112 93.952-25.088 45.696-23.296 77.312-59.136 95.872-106.112 15.744-39.808 20.48-81.408 15.744-123.648-7.424-67.584-25.088-132.608-55.168-194.048-17.792-36.48-40.832-69.376-73.088-95.232-27.392-21.888-58.368-35.2-94.08-36.992-59.136-2.944-105.6 21.76-143.744 63.872-30.464 33.536-50.944 72.96-66.56 114.816l0 0c-17.664 47.104-30.08 95.488-35.968 145.536-1.152 9.728-1.28 19.712-1.664 25.216C211.712 648.32 219.392 687.616 238.976 724.224L238.976 724.224zM238.976 724.224M32.384-67.712c-0.128 1.664-0.256 3.072-0.256 4.608 0 25.344-0.128 50.56 0 75.904 0.128 20.352 2.304 40.32 9.984 59.392 9.728 24.576 27.52 42.112 50.56 54.528 30.464 16.384 63.232 27.136 96.512 36.48 44.544 12.416 89.856 19.84 135.808 24.832 57.216 6.144 111.232 11.008 168.704 9.088 27.904-0.896 59.136-6.528 87.168-8.32 1.28-0.128 2.688-0.512 3.328-0.512-1.28-117.888 51.84-202.624 158.08-255.872L32.384-67.712 32.384-67.712zM32.384-67.712M992 158.336l-115.2 0 0-113.152-76.8 0 0 113.152-115.2 0 0 75.136 115.2 0L800 346.88l76.8 0 0-113.408 115.2 0L992 158.336zM992 158.336"  horiz-adv-x="1024" />

    
    <glyph glyph-name="weizhizhuangtai" unicode="&#58916;" d="M512 844.8c254.08 0 460.8-206.72 460.8-460.8 0-254.08-206.72-460.8-460.8-460.8-254.08 0-460.8 206.72-460.8 460.8C51.2 638.08 257.92 844.8 512 844.8M512 896C229.248 896 0 666.752 0 384c0-282.752 229.248-512 512-512 282.752 0 512 229.248 512 512C1024 666.752 794.752 896 512 896L512 896 512 896zM512 896M477.888 256c-0.256 0-0.32 14.4-0.32 18.88 0 26.496 3.776 48.704 11.264 67.968 5.504 14.528 14.4 28.8 26.624 43.584 9.024 10.752 25.216 26.24 48.576 46.848 23.36 20.608 38.592 36.992 45.568 49.28C616.512 494.848 620.096 508.16 620.096 522.688c0 26.24-10.24 49.344-30.72 69.184-20.48 19.84-45.696 29.824-75.456 29.824-28.736 0-52.736-9.024-72-27.008C422.592 576.64 409.984 548.48 403.968 510.272L334.656 518.528c6.272 51.264 24.832 90.496 55.68 117.76C421.184 663.552 461.952 677.12 512.704 677.12c53.76 0 96.64-14.656 128.64-43.904 32-29.248 48-64.64 48-106.112 0-24-5.632-46.144-16.896-66.368-11.264-20.224-33.28-44.864-65.984-73.856C584.448 367.36 570.112 353.024 563.392 343.744 556.608 334.464 551.616 325.248 548.416 313.216 545.152 301.12 543.232 256 542.784 256L477.888 256 477.888 256zM479.872 127.616l0 64.192 64.192 0 0-64.192L479.872 127.616 479.872 127.616z"  horiz-adv-x="1024" />

    
    <glyph glyph-name="star" unicode="&#4117;" d="M544 848L696 537.6 1038.4 488 792 246.39999999999998 849.6-94.39999999999998 544 67.20000000000005 236.8-94.39999999999998 296 246.39999999999998 48 488 390.4 537.6 544 848Z"  horiz-adv-x="1072" />

    
    <glyph glyph-name="closed" unicode="&#4162;" d="M682.025 333.04100000000005c-9.7 9.7-25.427 9.699-35.126 0.001l-100.315-100.314v590.124c0 13.718-11.121 24.837-24.837 24.837s-24.837-11.121-24.837-24.837v-590.113l-100.301 100.301c-9.7 9.7-25.427 9.699-35.126-0.001-9.7-9.699-9.7-25.427 0-35.126l138.87-138.869c4.849-4.849 11.207-7.275 17.564-7.275 0.356 0 0.709 0.036 1.063 0.051 0.91-0.101 1.831-0.163 2.768-0.163 0.939 0 1.86 0.062 2.77 0.164 0.358-0.015 0.715-0.051 1.074-0.051 6.355 0 12.714 2.426 17.564 7.275l138.87 138.869c9.698 9.699 9.698 25.427-0.001 35.126zM897.86 486.352c-26.106 19.455-60.42 30.17-96.627 30.17l-146.473-0.004c-13.665-0.062-24.725-11.152-24.725-24.833 0-13.68 11.06-24.771 24.725-24.833v-0.004h146.473c49.231 0 90.822-28.101 90.822-61.362v-396.442c0-33.261-41.593-61.362-90.822-61.362h-584.046c-49.231 0-90.822 28.101-90.822 61.362v396.442c0 33.261 41.593 61.362 90.822 61.362l166.007 0.005c0.038 0 0.075-0.005 0.113-0.005 13.718 0 24.837 11.121 24.837 24.837s-11.121 24.837-24.837 24.837c-0.038 0-0.075-0.004-0.113-0.005v0.005h-166.007c-36.206 0-70.523-10.716-96.627-30.17-28.291-21.085-43.872-49.806-43.872-80.868v-396.442c0-31.063 15.58-59.785 43.872-80.868 26.106-19.455 60.42-30.17 96.627-30.17h584.046c36.205 0 70.522 10.716 96.627 30.17 28.291 21.085 43.872 49.806 43.872 80.868v396.442c0 31.063-15.581 59.785-43.872 80.868z"  horiz-adv-x="1024" />

    
    <glyph glyph-name="iconxlsx" unicode="&#8208;" d="M845.631078 284.029124l-12.565177 12.68388c-2.532683 2.558265-5.987365 3.994987-9.586332 3.994987s-7.054673-1.436722-9.585309-3.994987L533.597389 14.176116999999977l0 805.853631c0 7.593955-6.118348 13.580297-13.660114 13.580297l-15.875572 0c-7.661494 0-13.661138-6.065136-13.661138-13.580297l0-805.851585-280.295847 282.534841c-5.062296 5.116531-14.108323 5.116531-19.170618 0l-12.5662-12.68388c-5.221932-5.27412-5.221932-13.752212 0-19.015076l324.046281-326.628082c2.532683-2.558265 5.987365-3.994987 9.586332-3.994987s7.054673 1.436722 9.585309 3.994987l324.045257 326.628082C850.85301 270.275889 850.85301 278.75398099999995 845.631078 284.029124z"  horiz-adv-x="1024" />

    
    <glyph glyph-name="iocn_be_concern" unicode="&#58887;" d="M445.984 32h-381.984c0.224 184 119.616 339.936 284.832 394.72-56.288 40.544-92.832 106.688-92.832 181.28 0 123.616 100.384 224 224 224 123.616 0 224-100.384 224-224 0-68.768-31.040-130.304-79.968-171.264-120.096-34.688-208.032-145.536-208.032-276.736 0-45.952 10.784-89.44 29.984-128zM700.096 95.987l47.808-47.808c24.704-24.992 24.608-65.312-0.288-90.208-24.96-24.96-65.536-24.96-90.496 0l-158.4 158.4c-24.96 24.96-24.96 65.536 0 90.496l158.4 158.4c24.96 24.992 65.536 24.992 90.496 0 24.992-24.96 24.992-65.536 0-90.496l-50.752-50.784h167.136c35.136-0.224 64-28.8 64-64 0-35.264-28.64-63.936-64-64h-163.904z"  horiz-adv-x="1024" />

    
    <glyph glyph-name="icon_concern" unicode="&#58888;" d="M445.978 32h-381.984c0.224 184 119.616 339.936 284.832 394.72-56.288 40.544-92.832 106.688-92.832 181.28 0 123.616 100.384 224 224 224 123.616 0 224-100.384 224-224 0-68.768-31.040-130.304-79.968-171.264-120.096-34.688-208.032-145.536-208.032-276.736 0-45.952 10.784-89.44 29.984-128zM707.888 95.987l-47.808-47.808c-24.704-24.992-24.608-65.312 0.288-90.208 24.96-24.96 65.536-24.96 90.496 0l158.4 158.4c24.96 24.96 24.96 65.536 0 90.496l-158.4 158.4c-24.96 24.992-65.536 24.992-90.496 0-24.992-24.96-24.992-65.536 0-90.496l50.752-50.784h-167.136c-35.136-0.224-64-28.8-64-64 0-35.264 28.64-63.936 64-64h163.904z"  horiz-adv-x="1024" />

    
    <glyph glyph-name="biaoqing1" unicode="&#58901;" d="M512 809.984C278.528 809.984 86.016 617.472 86.016 384c0-233.472 192.512-425.984 425.984-425.984 233.472 0 425.984 192.512 425.984 425.984C937.984 617.472 745.472 809.984 512 809.984zM512-1.024c-212.992 0-385.024 172.032-385.024 385.024s172.032 385.024 385.024 385.024 385.024-172.032 385.024-385.024S724.992-1.024 512-1.024zM700.416 281.6c-45.056-57.344-114.688-94.208-188.416-94.208-73.728 0-139.264 32.768-188.416 90.112-8.192 8.192-20.48 12.288-28.672 4.096C286.72 277.504 286.72 261.12 294.912 252.928c53.248-69.632 131.072-106.496 217.088-106.496 86.016 0 167.936 40.96 221.184 106.496 8.192 8.192 4.096 20.48-4.096 28.672C716.8 289.792 704.512 289.792 700.416 281.6zM331.776 404.48c16.384 0 28.672 12.288 28.672 28.672l0 32.768c0 16.384-12.288 28.672-28.672 28.672S299.008 486.4 299.008 470.016l0-32.768C299.008 420.864 311.296 404.48 331.776 404.48zM688.128 404.48c16.384 0 28.672 12.288 28.672 28.672l0 32.768c0 16.384-12.288 28.672-28.672 28.672-16.384 0-28.672-12.288-28.672-28.672l0-32.768C659.456 420.864 671.744 404.48 688.128 404.48z"  horiz-adv-x="1024" />

    
    <glyph glyph-name="shoucangfill" unicode="&#4130;" d="M777.312598-44.007026999999994c-3.184529 0-6.380314 0.759293-9.307993 2.297322L512.694825 92.51532299999997 257.385045-41.70868199999995c-6.741541-3.543709-14.909571-2.952238-21.070898 1.52268-6.161327 4.475941-9.246595 12.062733-7.959276 19.568684l48.759517 284.289812L70.566172 465.009012c-5.453199 5.316076-7.4159 13.268188-5.062296 20.511149 2.353604 7.242961 8.614192 12.521175 16.150842 13.616112l285.444101 41.47767L494.753197 799.269935c3.370771 6.828522 10.326183 11.153014 17.941628 11.153014 7.615445 0 14.570857-4.323469 17.941628-11.153014l127.654378-258.655991 285.444101-41.47767c7.53665-1.094938 13.797237-6.373151 16.150842-13.616112 2.353604-7.242961 0.390903-15.19405-5.062296-20.511149l-206.54924-201.335495 48.759517-284.289812c1.287319-7.505951-1.798972-15.092743-7.959276-19.568684C785.589099-42.71766100000002 781.461081-44.007026999999994 777.312598-44.007026999999994z"  horiz-adv-x="1024" />

    
    <glyph glyph-name="fujin" unicode="&#4133;" d="M480.070358 183.41634999999997c4.40056-4.912253 10.643214-7.470718 16.78353-7.470718 0.307016 0 0.614032 0 0.921047 0 0.307016 0 0.614032 0 0.921047 0 6.140316 0 12.280632 2.558465 16.78353 7.470718l171.621827 191.475515c80.642814 86.885469 54.648811 207.13332 53.523086 212.25025l-0.307016 1.125725c-29.1665 104.897062-98.142714 149.721367-150.847092 168.961023-27.222067 9.926844-52.704377 14.020388-72.148711 15.657805-1.023386 0.204677-2.149111 0.409354-3.172497 0.511693-0.71637 0.102339-6.652009 0.511693-16.271837 0.409354-9.619828 0.102339-15.555467-0.409354-16.271837-0.409354-1.125725-0.102339-2.149111-0.307016-3.172497-0.511693-19.444333-1.637418-45.028983-5.8333-72.148711-15.657805-52.704377-19.239656-121.680592-64.063962-150.847092-168.961023l-0.307016-1.125725c-1.125725-5.11693-27.222067-125.46712 53.523086-212.25025L480.070358 183.41634999999997zM298.828703 576.805916c19.239656 68.464521 59.970418 114.721567 121.168899 137.440736 32.953028 12.280632 63.654607 14.327404 79.210074 14.532081 15.964821-0.307016 44.107935-2.763142 74.707176-13.918049 62.01719-22.61683 103.259644-68.976214 122.703978-138.054767 0.71637-3.684189 5.423946-28.552469 2.865481-60.686788-3.581851-44.824305-18.93264-82.075555-45.643014-110.730362l-0.102339-0.204677L497.774935 231.20847500000002 341.810913 405.081751l-0.307016 0.307016c-26.710374 28.654807-42.061163 65.906056-45.643014 110.730362C293.404757 548.355787 298.112333 573.326404 298.828703 576.805916zM497.877274 433.941235c51.373976 0 93.128123 41.754148 93.128123 93.128123s-41.754148 93.128123-93.128123 93.128123-93.128123-41.754148-93.128123-93.128123S446.503298 433.941235 497.877274 433.941235zM497.877274 575.168499c26.505697 0 48.099141-21.593444 48.099141-48.099141s-21.593444-48.099141-48.099141-48.099141-48.099141 21.593444-48.099141 48.099141S471.371577 575.168499 497.877274 575.168499zM791.077354 189.96601999999996l-0.511693 0.409354c-35.818509 33.362383-99.780132 50.657605-119.429143 56.286228-11.973616 3.377174-24.458925-3.479512-27.836098-15.453128-3.377174-11.973616 3.479512-24.458925 15.453128-27.836098 17.295223-5.014591 73.274435-20.365381 100.905856-45.745353 7.880072-7.880072 14.532081-19.649011 11.768939-28.45013-3.786528-12.280632-25.994004-26.505697-59.561063-32.85069l-0.102339 0c-0.102339 0-15.657805-2.967819-45.643014-6.037977-27.836098-2.865481-86.06676-6.242654-148.186288-6.754347-4.40056 0-9.722167 0-15.35079 0-24.04957 0-56.90026 0.102339-60.789127 0.204677-44.210274 0.71637-84.838697 2.967819-120.861883 6.652009-29.985209 3.070158-45.438337 6.037977-45.540676 6.037977l-0.102339 0c-33.56706 6.344993-55.774535 20.570058-59.561063 32.85069-2.660804 8.903458 3.991205 20.672397 11.768939 28.45013 27.529083 25.482311 83.610634 40.8331 100.905856 45.745353 11.973616 3.377174 18.830302 15.862483 15.453128 27.836098-3.377174 11.973616-15.862483 18.830302-27.836098 15.453128-19.546672-5.628623-83.508295-23.026184-119.429143-56.286228l-0.511693-0.409354c-17.090546-16.885868-32.236658-45.131321-23.537877-73.888467 9.210474-30.292225 40.935439-53.830102 94.151509-63.961623 1.637418-0.307016 18.21627-3.479512 49.634219-6.652009 37.251249-3.786528 79.210074-6.140316 124.648411-6.856686 3.888867-0.102339 30.087547-0.102339 61.403158-0.204677 3.581851 0 6.959025 0 10.029182 0 0.409354 0 0.921047 0 1.330402 0 0 0 0.102339 0 0.102339 0 1.330402 0 2.763142 0 4.093544 0 6.54967 0 11.257246 0 12.689986 0 0 0 0.102339 0 0.102339 0 1.125725 0 2.149111 0.102339 3.274835 0.204677 55.876874 0.921047 110.11633 4.195882 136.41735 6.856686 31.417949 3.172497 48.099141 6.344993 49.634219 6.652009 53.21607 10.029182 84.941035 33.669398 94.151509 63.961623C823.41635 144.834699 808.167899 173.080152 791.077354 189.96601999999996z"  horiz-adv-x="1024" />

    
    <glyph glyph-name="filter" unicode="&#4132;" d="M0.021489 895.99693L0.308014 828.300311 375.481641 388.933856 375.481641 144.535299 375.511317 144.535299 375.493921 144.52711299999999 435.500416-1.7356499999999642 498.130661 23.96153800000002 443.180306 157.89759200000003 443.204865 413.830821 89.32106 828.300311 934.521351 828.300311 580.771599 414.008876 580.660059-127.99897699999997 648.361794-127.99897699999997 648.361794 388.933856 1023.534397 828.300311 1023.534397 895.99693Z"  horiz-adv-x="1024" />

    
    <glyph glyph-name="wode" unicode="&#4100;" d="M899.64-1.7150000000000318c-7.238 108.133-60.68 208.738-146.61 276.032l-5.165 3.568-0.047-0.07c-4.887 2.989-10.458 4.587-16.193 4.587-19.702 0-31.458-9.498-31.458-25.412 0-9.266 4.285-17.975 11.477-23.883l-0.08-0.139 4.562-3.266c72.065-51.519 112.638-129.653 120.584-232.273l0.085-1.12a31.507 31.507 0 0 1-0.116-2.612c0-17.341 14.058-31.4 31.4-31.4 16.76 0 30.45 13.13 31.35 29.665h0.624l-0.412 6.323z m-101.124 525.92c0 156.107-128.53 283.118-286.525 283.118S225.465 680.312 225.465 524.204c0-84.11 37.191-162.57 102.378-216.66-117.017-62.453-194.688-181.59-203.48-313.119l-0.362-5.483c-0.007-0.113-0.016-0.226-0.022-0.34l-0.033-0.5h0.02c-0.009-0.267-0.02-0.533-0.02-0.802 0-14.703 11.918-26.622 26.622-26.622 14.703 0 26.623 11.918 26.623 26.622 0 0.27-0.013 0.535-0.02 0.802h0.554l0.417 5.468c9.648 124.998 88.871 234.45 202.112 279.553 33.81-15.706 85.42-32.06 131.715-32.06 42.89 0 84.54 9.45 124.199 28.307l29.049 16.863 23.72 15.567c69.63 54.203 109.579 135.28 109.579 222.404zM511.99 298.068c-126.248 0-228.95 101.462-228.95 226.158 0 124.673 102.701 226.112 228.95 226.112 126.26 0 228.973-101.439 228.973-226.112-0.001-124.696-102.714-226.158-228.973-226.158z"  horiz-adv-x="1024" />

    
    <glyph glyph-name="pinglun1" unicode="&#58895;" d="M552.83712 74.1888a25.6 25.6 0 0 1 25.6-25.6h389.18144c14.14144 0 25.6 11.45856 25.6 25.6s-11.45856 25.6-25.6 25.6h-389.18144a25.6 25.6 0 0 1-25.6-25.6z m414.78144-113.13152H393.48224c-14.14144 0-25.6-11.45856-25.6-25.6s11.45856-25.6 25.6-25.6h574.13632c14.14144 0 25.6 11.45856 25.6 25.6s-11.45856 25.6-25.6 25.6zM412.64128 55.04c0.29696 0.3072 0.512 0.6656 0.79872 0.99328 0.64512 0.59392 1.37216 1.18784 1.95584 1.78176l410.66496 410.65472c0.01024 0 0.02048 0.01024 0.03072 0.02048l0.02048 0.03072 76.58496 76.58496c32.12288 32.12288 49.8176 74.83392 49.8176 120.25856s-17.70496 88.13568-49.8176 120.25856l-22.70208 22.70208c-32.12288 32.13312-74.84416 49.8176-120.25856 49.8176s-88.12544-17.69472-120.25856-49.8176l-487.30112-487.31136c-0.58368-0.57344-1.14688-1.30048-1.72032-1.91488-0.32768-0.29696-0.70656-0.52224-1.03424-0.83968a25.8048 25.8048 0 0 1-2.75456-3.35872l-0.27648-0.33792c-0.09216-0.14336-0.21504-0.26624-0.29696-0.4096-57.78432-71.69024-109.01504-329.3184-114.85184-359.424a25.60512 25.60512 0 0 1 31.21152-29.73696c28.98944 7.09632 278.528 69.39648 347.38176 127.77472 0.96256 0.7168 1.93536 1.40288 2.80576 2.27328z m-208.90624 245.11488l377.25184 377.25184 190.80192-190.8224-377.2416-377.2416-190.81216 190.81216z m471.94112 471.9616c22.45632 22.44608 52.30592 34.816 84.06016 34.816s61.60384-12.36992 84.04992-34.816l22.71232-22.71232c22.44608-22.44608 34.816-52.29568 34.816-84.04992s-12.36992-61.60384-34.816-84.04992l-58.5216-58.5216-190.80192 190.8224 58.50112 58.51136zM171.73504 259.74784l182.85568-182.86592c-55.66464-30.9248-174.42816-68.096-264.93952-92.09856 20.16256 94.13632 52.6848 217.86624 82.08384 274.96448z"  horiz-adv-x="1024" />

    
    <glyph glyph-name="jiahao" unicode="&#58884;" d="M828.02 699.482C743.477 783.616 631.108 829.95 511.546 829.95c-119.558 0-231.954-46.333-316.5-130.467-84.578-84.162-131.17-196.112-131.17-315.195 0-119.112 46.592-231.028 131.135-315.189 84.548-84.133 196.946-130.467 316.507-130.467 119.56 0 231.96 46.334 316.474 130.467 84.611 84.19 131.198 196.14 131.169 315.222 0.03 119.086-46.529 231-131.141 315.162z m-92.63-347.167H543.525v-191.863c0-17.683-14.326-31.975-31.98-31.975-17.646 0-31.973 14.292-31.973 31.975V352.315H287.711c-17.648 0-31.972 14.324-31.972 31.972 0 17.653 14.324 31.98 31.972 31.98h191.863v191.86c0 17.649 14.326 31.975 31.973 31.975 17.654 0 31.98-14.326 31.98-31.974v-191.861h191.862c17.682 0 31.973-14.327 31.973-31.98 0-17.648-14.291-31.972-31.973-31.972z m0 0"  horiz-adv-x="1024" />

    
    <glyph glyph-name="fenxiang1" unicode="&#58883;" d="M241.716115 113.101399s-0.797747-5.987618-0.31368-9.363442v-0.189051c1.394401-14.577395 13.672479-25.971028 28.608108-25.971027 14.941047 0 26.326251 11.059482 28.608108 25.971027l2.266204 13.160717c111.685774 465.148473 460.749125 546.430757 619.803004 558.8437L760.021026 525.62326c-11.423736-11.172672-11.63386-29.666553-0.461189-41.090891 11.173876-11.427951 29.666553-11.63988 41.09631-0.466005l214.03219 199.734759c5.800975 5.669723 8.70357 13.227547 8.703569 20.793198 0.181826 9.835467-4.610074 19.557142-13.48403 25.175689L748.853773 887.941251c-13.500888 8.549439-31.544419 4.490864-40.093256-9.011229-8.549439-13.506307-4.497486-31.549235 9.010025-40.098072l179.135428-108.539942C340.083429 677.089814 251.898377 188.655559 241.716115 113.101399z m0 0M1023.397927 325.352656c0 16.05127-13.011403 29.057255-29.062673 29.057255-16.044647 0-29.057857-13.005984-29.057857-29.057255 0-0.143895 0.012041-0.27876 0.012041-0.421451h-0.012041v-298.870318c0-24.975801-9.834865-48.568639-27.697171-66.430344-17.867123-17.861102-41.454543-27.703794-66.42914-27.703794H156.763593c-24.974597 0-48.563221 9.842692-66.429139 27.703794-17.861102 17.861704-27.696569 41.454543-27.696569 66.430344V660.987969c0 24.976403 9.835467 48.568639 27.696569 66.429742C108.194954 745.279415 131.788997 755.114882 156.763593 755.114882h186.387399c16.045852 0 29.057857 13.011403 29.057857 29.063275 0 16.04525-13.011403 29.05605-29.057857 29.056051H156.763593c-83.732722 0-152.246841-68.506894-152.24684-152.246239v-634.933705c0-83.733324 68.514119-152.248045 152.24684-152.248045h714.387493c83.732722 0 152.246841 68.514721 152.246841 152.248045V324.931205h-0.012042c0.000602 0.142691 0.012041 0.277556 0.012042 0.421451z m0 0M343.150992 813.234208V755.114882v58.119326z m0 0"  horiz-adv-x="1024" />

    
    <glyph glyph-name="jia" unicode="&#4165;" d="M1018.024921 428.332632H553.659381V892.705398h-86.700064v-464.372766H2.586552v-86.700063h464.372765v-464.387215h86.700064V341.632569h464.36554z"  horiz-adv-x="1024" />

    
    <glyph glyph-name="746bianjiqi_biaoqing" unicode="&#58981;" d="M510.114-63.516c-119.434 0-231.73 46.511-316.157 130.903C109.5 151.893 63.011 264.178 63.033 383.654c0 119.463 46.52 231.77 130.992 316.233C278.463 784.32 390.748 830.833 510.192 830.833c119.485 0 231.76-46.513 316.241-130.938 174.337-174.404 174.315-458.092 0-632.42C741.932-16.97 629.6-63.516 510.114-63.516z m0.078 836.066c-103.89 0-201.53-40.436-274.975-113.867-73.457-73.423-113.914-171.117-113.914-275.029C121.29 279.73 161.717 182.048 235.15 108.6c73.436-73.398 171.105-113.88 274.964-113.88 103.924 0 201.626 40.502 275.106 113.969 151.614 151.598 151.614 398.341 0 549.99-73.467 73.436-171.126 113.871-275.028 113.871z m-158.9-510.936s52.39-83.75 158.81-83.75 176.208 83.75 176.208 83.75 39.555 0.132 39.546-41.873c0 0-68.598-97.706-215.754-97.706-147.171 0-195.06 97.706-195.06 97.706s-1.45 41.873 36.253 41.873h-0.003z m28.876 265.83c-30.155 0-54.763-24.526-54.763-54.77 0-30.204 24.607-54.738 54.763-54.738 30.292 0 54.764 24.534 54.764 54.738-0.001 30.244-24.472 54.77-54.764 54.77z m280.579 0c-30.2 0-54.725-24.526-54.725-54.77 0-30.204 24.526-54.738 54.725-54.738 30.258 0 54.77 24.534 54.77 54.738 0 30.244-24.512 54.77-54.77 54.77z m0 0"  horiz-adv-x="1024" />

    
    <glyph glyph-name="mima" unicode="&#4163;" d="M668.444444 615.537778c0 88.405333-70.428444 159.573333-156.444444 159.573333s-156.444444-71.168-156.444444-159.573333v-106.382222h312.888888V615.537778z m172.088889-184.604445H183.466667v-438.044444h657.066666v438.044444zM277.333333 615.537778c0 131.413333 104.817778 237.795556 234.666667 237.795555s234.666667-106.382222 234.666667-237.795555v-106.382222h109.511111c34.417778 0 62.577778-28.16 62.577778-62.577778v-469.333334c0-34.417778-28.16-62.577778-62.577778-62.577777H167.822222c-34.446222 0-62.577778 28.16-62.577778 62.577777V446.577778c0 34.417778 28.131556 62.577778 62.577778 62.577778h109.511111V615.537778z"  horiz-adv-x="1024" />

    
    <glyph glyph-name="gongsixinxi" unicode="&#4166;" d="M32-32v64h64v640a128 128 0 0 0 128 128h320a128 128 0 0 0 128-128v-192h128a128 128 0 0 0 128-128v-320h64v-64H32z m576 704a64 64 0 0 1-64 64h-320a64 64 0 0 1-64-64v-640h448v640z m256-320a64 64 0 0 1-64 64h-128v-384h192v320z m-640 0h256v-64h-256v64z m0 128h256v-64h-256v64z m0 128h256v-64h-256v64z"  horiz-adv-x="1024" />

    
    <glyph glyph-name="fankuiyijian" unicode="&#4120;" d="M865.773 488.494c-16.142 0-29.127-12.986-29.127-29.127v-375.982c0-12.622-10.316-22.938-22.938-22.938h-600.989c-12.622 0-22.938 10.316-22.938 22.938v601.11c0 12.622 10.316 22.938 22.938 22.938h375.254c16.142 0 29.127 12.986 29.127 29.127s-12.986 29.127-29.127 29.127h-375.254c-44.783 0-81.191-36.409-81.191-81.191v-600.989c0-44.783 36.409-81.191 81.191-81.191h600.989c44.783 0 81.191 36.409 81.191 81.191v375.861c0 16.142-13.107 29.127-29.127 29.127zM334.324 344.678l-35.438-139.568c-2.548-9.952 0.364-20.511 7.646-27.792s17.84-10.194 27.792-7.646l139.568 35.438c5.098 1.334 9.709 3.884 13.471 7.646l387.876 387.876c26.457 26.457 26.093 69.905-0.729 96.848l-47.696 47.696c-26.943 26.943-70.39 27.307-96.848 0.729l-387.997-387.755c-3.641-3.762-6.311-8.374-7.646-13.471zM771.109 704.763c3.762 3.762 10.316 3.398 14.563-0.729l47.696-47.696c4.127-4.127 4.491-10.801 0.729-14.563l-29.977-29.977-62.988 62.988 29.977 29.977zM699.87 633.644l62.988-62.988-278.164-278.043-62.988 62.988 278.164 278.043zM385.539 309.48400000000004l53.157-53.157-71.239-18.083 18.083 71.239z"  horiz-adv-x="1024" />

    
    <glyph glyph-name="ziyuan" unicode="&#4098;" d="M512.226749-128c-192.736935 0-400.439327 40.361382-400.439327 128.793623 0 62.129318 99.316209 94.327724 181.399469 110.200177a25.395926 25.395926 0 0 0 9.523472-49.884854c-106.118689-19.953942-141.491585-49.431355-141.491585-59.861825 0-23.128432 118.816652-78.001771 349.193977-78.001771s349.193977 54.419841 349.193977 78.001771c0 10.883968-37.186891 40.81488-146.93357 61.222321a25.395926 25.395926 0 0 0-20.40744 29.477414 25.849424 25.849424 0 0 0 29.477414 20.40744c86.164748-15.872453 188.655447-47.61736 188.655447-111.107175 1.813995-88.88574-205.434898-129.247121-398.171834-129.247121zM512.226749-45.46324200000004a31.744907 31.744907 0 0 0-26.302923 13.60496L261.441984 298.74225a351.46147 351.46147 0 1 0 501.116032 0L538.076174-31.85828200000003a31.744907 31.744907 0 0 0-25.849425-13.60496z m0 878.426927a287.971656 287.971656 0 0 1-204.074402-492.046059l3.62799-4.534986 199.992914-294.320638 199.992914 294.320638 3.627989 4.534986A287.971656 287.971656 0 0 1 512.226749 832.9636849999999zM512.226749 409.395926a165.073516 165.073516 0 1 0 165.073517 165.073516 165.073516 165.073516 0 0 0-165.073517-165.073516z m0 267.110717a102.037201 102.037201 0 1 1 102.037201-102.037201 102.037201 102.037201 0 0 1-102.037201 102.037201z"  horiz-adv-x="1024" />

    
    <glyph glyph-name="ziyuan1" unicode="&#4128;" d="M516.009212-128h-8.490096A508.46246 508.46246 0 0 0 0 379.99078799999995v8.490096A508.46246 508.46246 0 0 0 507.519116 896h8.490096a508.46246 508.46246 0 0 0 507.990788-507.519116v-8.490096a508.46246 508.46246 0 0 0-507.990788-507.990788z m-8.490096 958.437586a442.428374 442.428374 0 0 1-441.956702-441.956702v-8.490096a442.428374 442.428374 0 0 1 441.956702-441.956702h8.490096a442.428374 442.428374 0 0 1 441.956702 441.956702v8.490096a442.428374 442.428374 0 0 1-441.956702 441.956702zM507.990788 296.50483599999995a33.017043 33.017043 0 0 0-33.017043 33.017043V647.4288349999999a33.017043 33.017043 0 1 0 65.562413 0V329.993551a33.017043 33.017043 0 0 0-32.54537-33.488715zM511.764164 181.88853099999994m-67.920774 0a67.920774 67.920774 0 1 1 135.841548 0 67.920774 67.920774 0 1 1-135.841548 0Z"  horiz-adv-x="1024" />

    
    <glyph glyph-name="gongsi" unicode="&#4119;" d="M832-119.29600000000005H192v832c0 52.928 43.072 96 96 96h448c52.928 0 96-43.072 96-96v-832z m-576 64h512v768a32 32 0 0 1-32 32h-448a32 32 0 0 1-32-32v-768zM896-128H128a32 32 0 0 0 0 64h768a32 32 0 0 0 0-64zM480 64h-128a32 32 0 0 0 0 64h128a32 32 0 0 0 0-64zM480 303.168h-128a32 32 0 0 0 0 64h128a32 32 0 0 0 0-64zM480 512h-128a32 32 0 0 0 0 64h128a32 32 0 0 0 0-64zM672 64h-64a32 32 0 0 0 0 64h64a32 32 0 0 0 0-64zM672 303.168h-64a32 32 0 0 0 0 64h64a32 32 0 0 0 0-64zM672 512h-64a32 32 0 0 0 0 64h64a32 32 0 0 0 0-64zM512 783.04a32 32 0 0 0-32 32V864a32 32 0 0 0 64 0v-48.96a32 32 0 0 0-32-32z"  horiz-adv-x="1024" />

    
    <glyph glyph-name="mingpian" unicode="&#4135;" d="M768 768H256a32 32 0 0 0 0 64h512a32 32 0 0 0 0-64zM928 0h-832C43.072 0 0 43.072 0 96v512C0 660.928 43.072 704 96 704h832c52.928 0 96-43.072 96-96v-512c0-52.928-43.072-96-96-96zM96 640a32 32 0 0 1-32-32v-512a32 32 0 0 1 32-32h832c17.6 0 32 14.4 32 32v512a32 32 0 0 1-32 32h-832zM800 288h-192c-35.264 0-64 28.672-64 64v128c0 35.264 28.736 64 64 64h192c35.328 0 64-28.736 64-64v-128a64 64 0 0 0-64-64z m0 64V320v32z m-192 128v-128h192v128h-192zM832 128H192a32 32 0 0 0 0 64h640a32 32 0 0 0 0-64zM448 256H192a32 32 0 0 0 0 64h256a32 32 0 0 0 0-64z"  horiz-adv-x="1024" />

    
    <glyph glyph-name="pinpai" unicode="&#16418;" d="M832.35328 704.3584C746.8288 789.9955199999999 633.02656 837.12 512 837.12s-234.8288-47.12448-320.43008-132.7616A450.05824 450.05824 0 0 1 58.88 384c0-88.21248 25.37472-173.70112 73.28768-247.21408a31.53408 31.53408 0 1 1 52.79232 34.432A388.48 388.48 0 0 0 121.93792 384c0 215.08096 174.94016 390.06208 390.06208 390.06208 215.04 0 390.06208-174.98112 390.06208-390.06208 0-215.08096-175.02208-390.09792-390.06208-390.09792-71.25504 0-140.91776 19.37408-201.48736 56.00256a31.5392 31.5392 0 0 1-32.6656-53.91872A452.31616 452.31616 0 0 1 512-69.12c121.02144 0 234.8288 47.12448 320.35328 132.72576C918.00064 149.1712 965.12 262.97344 965.12 384c0 121.02144-47.11936 234.8288-132.76672 320.3584zM672.86016 418.13504c19.18464 20.2752 28.8512 47.50336 28.8512 81.4848a130.35008 130.35008 0 0 1-8.57088 47.12448 115.68128 115.68128 0 0 1-63.06304 64.8704 133.66784 133.66784 0 0 1-39.82848 10.87488 460.0832 460.0832 0 0 1-53.17632 2.75968H386.8672c-19.90144 0-35.42016-4.608-44.32896-13.52192-8.87296-8.91392-14.3872-23.4496-14.3872-43.35104v-350.8992c0-18.42688 5.09952-32.4352 13.21984-41.98912 8.04352-9.51808 19.97312-14.3104 34.7392-14.3104 13.62944 0 24.39168 4.57216 32.88576 13.6704 8.45824 9.13408 12.38528 23.33696 12.38528 42.62912v147.71712h33.64352c16.38912 0 29.94176-2.75456 40.704-7.13728 10.76224-4.34688 21.37088-12.7232 31.9488-24.54528 10.37824-11.82208 22.27712-29.14816 35.52768-51.76832l37.00736-61.66016c8.76032-14.53568 15.63136-25.56416 20.73088-33.03936 5.0944-7.43936 11.136-13.62944 18.2016-18.50368 7.02464-4.86912 15.70816-7.3216 26.09152-7.3216 8.68864 0 16.38912 1.73568 22.99904 5.13024 6.64576 3.43552 11.8528 8.1152 15.70816 14.00832 3.85024 5.888 5.7344 11.8528 5.7344 17.8944 0 5.78048-3.2512 16.46592-9.81504 31.90784a394.2144 394.2144 0 0 1-27.38176 51.92192 385.09568 385.09568 0 0 1-39.9872 54.2976c-14.91456 16.99328-30.62272 29.82912-46.976 38.5536 39.08608 8.42752 68.16256 22.85056 87.34208 43.20256z m-76.76416 37.45792c-8.04352-9.21088-19.6352-15.104-34.7392-18.99008-15.104-3.8144-33.79712-5.13536-55.9616-5.13536H421.4528V555.84256h86.43584c31.7184 0 52.93568-2.3808 63.73376-6.94784 11.4432-4.79744 20.36224-12.0064 26.77248-21.67296 6.4256-9.66656 9.66656-20.84352 9.66656-33.49504-0.04096-16.12288-4.00384-28.88192-11.96544-38.13376z"  horiz-adv-x="1024" />

    
    <glyph glyph-name="guanyu" unicode="&#4121;" d="M491.776 544c12.864 0 52.48 6.144 65.152 18.304a61.056 61.056 0 0 1 18.88 45.504 61.248 61.248 0 0 1-18.88 45.184 62.464 62.464 0 0 1-45.248 18.56 61.312 61.312 0 0 1-44.48-18.304 61.312 61.312 0 0 1-18.688-45.44c0-18.432 6.336-33.664 18.88-45.76 12.608-12.032 11.904-18.048 24.384-18.048zM512 864C246.912 864 32 649.152 32 384s214.912-480 480-480c265.152 0 480 214.848 480 480S777.152 864 512 864z m0-896a416 416 0 1 0 0 832 416 416 0 0 0 0-832z m39.488 278.528l-14.912-14.848 39.744 210.816c0.256 1.408-0.192 2.816-0.128 4.224v0.64a30.592 30.592 0 0 1-9.408 22.72l-0.256 0.448c-0.192 0.192-0.448 0.192-0.64 0.384a33.28 33.28 0 0 1-12.992 7.424c-1.664 0.512-3.008 1.472-4.8 1.728-1.216 0.192-2.432-0.128-3.712-0.064l-3.136-0.064a34.24 34.24 0 0 1-29.504-17.216L425.472 376.51199999999994a33.152 33.152 0 1 1 47.04-46.976l14.848 14.848-39.68-210.816c-0.256-1.472 0.192-2.816 0.128-4.288v-0.64a30.272 30.272 0 0 1 9.408-22.72l0.256-0.384 0.64-0.448a35.456 35.456 0 0 1 12.992-7.36c1.6-0.512 2.944-1.408 4.736-1.728 1.28-0.192 2.496 0.192 3.776 0.064l3.136 0.128a34.048 34.048 0 0 1 29.504 17.152l86.272 86.272a33.152 33.152 0 1 1-47.04 46.912z"  horiz-adv-x="1024" />

    
    <glyph glyph-name="shenhe1" unicode="&#58936;" d="M406.69973333 44.75093332999995H194.15253333c-16.0512 0-29.18293333 13.13173333-29.18293333 29.18293334V774.3189333299999c0 16.0512 13.13173333 29.18293333 29.18293333 29.18293334h554.47146667c16.04906667 0 29.18293333-13.13173333 29.18293333-29.18293334v-248.05333333c0-16.0512 13.13173333-29.18293333 29.18293334-29.18293333 16.04906667 0 29.18293333 13.13173333 29.18293333 29.18293333v248.05333333c0 48.1504-39.39733333 87.54773333-87.54773333 87.54773334H194.15253333c-48.15253333 0-87.5488-39.39733333-87.5488-87.54773334v-700.38506666c0-48.15146667 39.39626667-87.54773333 87.5488-87.54773334h212.5472c16.0512 0 29.18293333 13.13173333 29.18293334 29.18293334-0.00106667 16.05013333-13.1328 29.18186667-29.18293334 29.18186666zM682.47573333 701.36213333H244.73493333c-16.0512 0-29.18293333-13.13173333-29.18293333-29.18293333 0-16.0512 13.13173333-29.18293333 29.18293333-29.18293333h437.7408c16.05013333 0 29.18293333 13.13173333 29.18293334 29.18293333 0 16.05013333-13.1328 29.18293333-29.18293334 29.18293333z m0-145.9136H244.73493333c-16.0512 0-29.18293333-13.13173333-29.18293333-29.18293333 0-16.0512 13.13173333-29.18293333 29.18293333-29.18293333h437.7408c16.05013333 0 29.18293333 13.13173333 29.18293334 29.18293333 0 16.0512-13.1328 29.18293333-29.18293334 29.18293333zM512.2432 409.53493333H244.73493333c-16.0512 0-29.18293333-13.13173333-29.18293333-29.18293333s13.13173333-29.18293333 29.18293333-29.18293333h267.50826667c16.0512 0 29.18293333 13.13173333 29.18293333 29.18293333s-13.1328 29.18293333-29.18293333 29.18293333z m355.5424-449.89973333H583.7408c-14.59093333 0-26.75093333-12.15893333-26.75093333-26.75093333S569.1488-93.86666666999997 583.7408-93.86666666999997H867.78666667c14.592 0 26.26346667 11.6736 26.75093333 27.23733334-0.00106667 14.59093333-12.16 26.26453333-26.752 26.26453333z m-7.29493333 209.6288h-55.93386667c-7.296 17.02293333 1.94453333 49.1232 25.29173333 87.06133333l0.48533334 0.9728v0.4864c0.4864 0.48533333 0.97386667 1.4592 0.97386666 1.4592 10.21333333 19.45493333 20.42773333 43.77386667 20.42773334 75.3888 0 70.5248-55.44746667 126.45866667-126.45866667 126.944h-0.9728c-71.0112-0.48533333-125.97226667-56.4192-125.97226667-126.944 0-31.61493333 10.2144-55.44746667 20.42773334-74.9024 0.4864-1.4592 0.97386667-2.432 1.4592-2.91733333l0.4864-0.4864c23.34613333-37.93813333 32.58666667-69.552 25.29173333-87.06133333h-55.93386667c-31.61493333 0-56.9056-26.2656-56.9056-58.85226667v-93.87093333c0-13.13173333 10.69973333-23.83253333 23.83253334-23.83253334h337.06026666c13.13173333 0 23.34613333 10.7008 23.34613334 23.34613334v94.35733333c0 32.58666667-25.29173333 58.8512-56.9056 58.8512z m4.37653333-122.56746667H585.6864v63.71626667c0 2.9184 1.94453333 4.864 4.37653333 4.864h79.28l3.4048 2.9184c40.85546667 33.55946667 38.42346667 92.41173333-6.80853333 165.85386667-9.2416 17.99573333-14.59093333 32.10133333-14.59093333 50.58453333 0 41.34186667 32.10026667 72.9568 73.9296 73.44213333 42.31466667-0.48533333 73.9296-32.10026667 73.9296-73.44213333 0-18.9696-5.3504-33.07413333-14.59093334-50.58453333-45.23306667-73.44213333-47.17866667-132.2944-6.80853333-165.85386667l3.4048-2.9184h78.79253333c2.432 0 4.37653333-1.9456 4.37653334-4.864v-63.71626667h0.48533333z m-431.904 216.9248H244.73493333c-16.0512 0-29.18293333-13.13173333-29.18293333-29.18293333s13.13173333-29.18293333 29.18293333-29.18293333h188.22826667c16.0512 0 29.18293333 13.13173333 29.18293333 29.18293333s-13.13173333 29.18293333-29.18293333 29.18293333z"  horiz-adv-x="1024" />

    
    <glyph glyph-name="sanjiao_xia" unicode="&#4131;" d="M130.255 574.8720000000001L512 193.12800000000004l381.745 381.745h-763.49z"  horiz-adv-x="1024" />

    
    <glyph glyph-name="pinglun" unicode="&#58924;" d="M884.3 766.6H140.4c-42 0-76.1-45.7-76.1-102v-441.7c0-56.3 34.1-102 76.1-102h63.5c4.9 0 9.2-3.1 10.6-7.8l32-101.1c2.1-6.8 10-9.8 16.1-6.3l200.2 113.7c1.7 1 3.6 1.5 5.5 1.5h415.9c42 0 76.1 45.7 76.1 102V664.6c0 56.3-34 102-76 102z m30-543.7c0-17.1-4.8-33.4-13.2-44.6-2.6-3.4-9.3-11.4-16.9-11.4H465.4c-8 0-15.8-2.1-22.7-6l-153.3-87.1c-6.2-3.5-14-0.4-16.1 6.3L258.4 127c-7.5 23.8-29.6 39.9-54.5 39.9h-63.5c-7.6 0-14.4 8-16.9 11.4-8.4 11.2-13.1 27.5-13.1 44.6V664.6c0 17.1 4.8 33.4 13.1 44.6 2.6 3.4 9.3 11.4 16.9 11.4h743.9c7.6 0 14.4-8 16.9-11.4 8.4-11.2 13.2-27.4 13.2-44.6v-441.7zM749.9 621.9h-575c-22.1 0-39.5-16.3-39.5-37.2 0-20.9 17.3-37.2 39.5-37.2h575c22.1 0 39.5 16.3 39.5 37.2 0 20.8-17.3 37.2-39.5 37.2zM749.9 496h-575c-22.1 0-39.5-16.7-39.5-38.1 0-21.4 17.3-38.1 39.5-38.1h575c22.1 0 39.5 16.8 39.5 38.1 0 21.4-17.3 38.1-39.5 38.1zM559.6 365.7h-390c-19.8 0-34.2-15.8-34.2-37.6s14.4-37.6 34.2-37.6h390c19.8 0 34.2 15.8 34.2 37.6 0 21.7-14.4 37.6-34.2 37.6z"  horiz-adv-x="1024" />

    
    <glyph glyph-name="dingdan" unicode="&#4099;" d="M125.312 354.36800000000005V679.296c0 46.848 30.656 83.52 76.992 90.24a227.84 227.84 0 0 0 46.72 0.512c14.72-1.024 25.472-15.36 24.768-30.4a29.44 29.44 0 0 0-28.032-28.288c-9.856-0.32-19.712 0-29.568-0.064-19.008-0.256-31.488-12.736-31.488-31.936V29.440000000000055c0-19.52 12.544-32.064 32-32.064h590.144c20.032 0 32.256 12.416 32.32 33.088V209.27999999999997l0.064 467.392a35.712 35.712 0 0 1-6.208 22.72 29.248 29.248 0 0 1-23.424 11.776c-9.792 0.192-19.712 0-29.568 0.064a29.888 29.888 0 0 0-30.336 29.312 29.44 29.44 0 0 0 29.632 29.888c17.024-0.192 34.432 0.64 50.816-2.752 39.168-8.064 66.944-43.264 68.352-83.136l0.064-6.784v-646.848c0-38.976-17.472-67.648-52.608-84.928a83.2 83.2 0 0 0-37.056-8H215.104a88.96 88.96 0 0 0-89.792 90.176V354.36800000000005z m0 0M512.128 651.84H396.16c-37.632 0-62.528 25.024-62.656 62.592 0 18.112-0.064 36.16 0.064 54.336 0.192 35.904 25.408 61.248 61.312 61.248h234.304c35.52 0 61.056-25.6 61.12-60.992 0.064-19.072 0.128-38.208 0-57.344a58.688 58.688 0 0 0-58.624-59.712c-39.808-0.448-79.68-0.064-119.552-0.128z m118.528 118.336H393.408v-58.624h237.184v58.624h0.064z m0 0M511.424 294.72H336.96a32.448 32.448 0 0 0-22.848 7.36 28.544 28.544 0 0 0-9.024 30.72 28.032 28.032 0 0 0 24 21.056 48.384 48.384 0 0 0 6.784 0.512h351.936c20.032 0 33.344-13.504 32.128-32.256a29.44 29.44 0 0 0-23.68-26.496 64 64 0 0 0-11.072-0.768c-57.92-0.128-115.84-0.128-173.76-0.128z m0 0M511.488 146.24H334.016a28.16 28.16 0 0 0-27.2 16.832 28.224 28.224 0 0 0 3.52 31.232 29.056 29.056 0 0 0 24.192 11.264h353.856c18.496 0 31.552-12.352 31.552-29.632a29.056 29.056 0 0 0-29.056-29.632c-22.4-0.192-44.8-0.064-67.2-0.064H511.488z m0 0M452.672 502.912c39.488 0 78.912 0.128 118.4-0.064a29.44 29.44 0 0 0 29.248-36.672 29.76 29.76 0 0 0-29.504-22.592H491.968c-52.608 0-105.216-0.064-157.824 0.064a29.696 29.696 0 1 0 0.128 59.264h118.4z m0 0"  horiz-adv-x="1024" />

    
    <glyph glyph-name="wujiaoxing" unicode="&#58900;" d="M959.008 489.984l-308 47.008L512 832 372.992 536.992l-308-47.008 223.008-228-52.992-324L512 90.976l276.992-152.992-52.992 324zM512 156L304 39.008l40 235.008-179.008 182.016 242.016 32 104.992 224 104-224 240.992-34.016L680 273.024l36.992-235.008z"  horiz-adv-x="1024" />

    
    <glyph glyph-name="xingming" unicode="&#58899;" d="M511.37821 826.023644c59.577869 0 117.335353-11.653063 171.669994-34.634297 52.516255-22.212495 99.695314-54.025745 140.225619-94.55705s72.344555-87.710363 94.557051-140.225619c22.981235-54.334641 34.634297-112.092125 34.634297-171.669994 0-59.577869-11.652063-117.335353-34.634297-171.669995-22.212495-52.515256-54.025745-99.695314-94.557051-140.225619S735.56446 0.6965149999999767 683.048204-21.515980000000013c-54.334641-22.981235-112.092125-34.634297-171.669994-34.634297-59.57687 0-117.335353 11.652063-171.668995 34.634297-52.516255 22.212495-99.695314 54.026745-140.225619 94.55705-40.531305 40.531305-72.344555 87.710363-94.55705 140.225619C81.945311 267.60132999999996 70.292249 325.35981400000003 70.292249 384.936684c0 59.57687 11.653063 117.335353 34.634297 171.669994 22.212495 52.516255 54.025745 99.695314 94.55705 140.225619 40.530305 40.531305 87.709364 72.344555 140.225619 94.55705 54.333641 22.981235 112.092125 34.634297 171.668995 34.634297m0 69.976356C229.12658 896 0.315893 667.189313 0.315893 384.936684c0-282.252629 228.810687-511.062317 511.062317-511.062317 282.253629 0 511.062317 228.810687 511.062317 511.062317 0 282.252629-228.808688 511.063316-511.062317 511.063316zM511.37821 630.089849c44.122092 0 85.602076-17.182194 116.799535-48.379653 31.198458-31.197459 48.379653-72.678443 48.379653-116.799535s-17.182194-85.602076-48.379653-116.799534c-31.197459-31.198458-72.677443-48.379653-116.799535-48.379653-44.121092 0-85.601076 17.182194-116.799534 48.379653s-48.379653 72.678443-48.379653 116.799534c0 44.121092 17.182194 85.601076 48.379653 116.799535s72.678443 48.379653 116.799534 48.379653m0 69.976355c-129.872117 0-235.155543-105.282426-235.155543-235.156543 0-129.873117 105.283426-235.155543 235.155543-235.155543 129.874117 0 235.155543 105.282426 235.155543 235.155543 0 129.874117-105.281426 235.156543-235.155543 235.156543zM873.255935 47.440720000000056c-19.323471 0-34.988178 15.664707-34.988178 34.988178 0 36.244753-18.818641 70.879051-52.990095 97.524048-36.743585 28.650319-86.087912 44.427988-138.945052 44.427988h-269.9088c-52.85714 0-102.201467-15.777669-138.944052-44.427988-34.171454-26.643997-52.991095-61.279294-52.991095-97.524048 0-19.323471-15.664707-34.988178-34.988178-34.988178s-34.988178 15.664707-34.988178 34.988178c0 29.777938 7.424491 58.563212 22.066544 85.556091 13.739358 25.329441 33.210778 47.921808 57.872446 67.151311 48.977451 38.189096 113.603614 59.22099 181.973513 59.220989h269.9088c68.370898 0 132.996062-21.031894 181.973513-59.220989 24.661667-19.228503 44.132088-41.821869 57.872445-67.151311 14.641053-26.992879 22.065544-55.778153 22.065544-85.556091-0.001-19.323471-15.665707-34.988178-34.989177-34.988178z"  horiz-adv-x="1024" />

    
    <glyph glyph-name="shenfenzheng" unicode="&#8226;" d="M874 702.7139999999999c44.112 0 80-35.888 80-80v-492.283c0-44.111-35.888-80-80-80H150c-44.112 0-80 35.889-80 80V622.7139999999999c0 44.112 35.888 80 80 80h724m0 70H150c-82.843 0-150-67.157-150-150v-492.283c0-82.843 67.157-150 150-150h724c82.843 0 150 67.157 150 150V622.7139999999999c0 82.843-67.157 150-150 150zM715.5 547.6890000000001c43.05 0 78.074-35.024 78.074-78.074s-35.024-78.074-78.074-78.074-78.074 35.024-78.074 78.074 35.024 78.074 78.074 78.074m0 70c-81.779 0-148.074-66.295-148.074-148.074 0-81.779 66.295-148.074 148.074-148.074s148.074 66.295 148.074 148.074c0 81.779-66.295 148.074-148.074 148.074zM863.574 176.64599999999996c-19.33 0-35 15.67-35 35 0 62.349-50.725 113.073-113.074 113.073s-113.074-50.725-113.074-113.073c0-19.33-15.67-35-35-35s-35 15.67-35 35c0 100.947 82.127 183.073 183.074 183.073s183.074-82.126 183.074-183.073c0-19.331-15.67-35-35-35zM457.5 490.5h-312c-19.33 0-35 15.67-35 35s15.67 35 35 35h312c19.33 0 35-15.67 35-35s-15.67-35-35-35zM457.5 340h-312c-19.33 0-35 15.67-35 35s15.67 35 35 35h312c19.33 0 35-15.67 35-35s-15.67-35-35-35zM364.5 189.5h-219c-19.33 0-35 15.67-35 35s15.67 35 35 35h219c19.33 0 35-15.67 35-35s-15.67-35-35-35z"  horiz-adv-x="1024" />

    
    <glyph glyph-name="yijianfankui1" unicode="&#59202;" d="M832.768 554.794667c0 18.901333 15.872 34.261333 35.413333 34.261333 19.882667 0 36.096-15.658667 36.096-34.858667v-550.144c0-60.970667-51.498667-110.72-114.602666-110.72H157.226667C94.165333-106.66666699999996 42.666667-56.917332999999985 42.666667 4.053332999999952V692.992c0 60.970667 51.498667 110.72 114.56 110.72h493.738666c20.650667 0 37.333333-16.128 37.333334-36.096 0-21.632-18.090667-39.296-40.661334-39.296H149.12c-19.370667 0-35.114667-15.36-35.114667-33.92v-691.882667c0-18.773333 15.914667-33.962667 35.114667-33.962666h648.533333c19.370667 0 35.114667 15.36 35.114667 33.962666V554.794667z m-388.693333-101.034667H215.552a28.885333 28.885333 0 0 0-29.226667 28.288V495.36c0 15.488 13.184 28.245333 29.226667 28.245333h228.522667c16.042667 0 29.226667-12.757333 29.226666-28.245333v-13.354667c0.170667-15.530667-13.013333-28.288-29.226666-28.288z m214.357333-210.048H215.552a28.885333 28.885333 0 0 0-29.226667 28.245333v13.397334c0 15.488 13.184 28.245333 29.226667 28.245333h442.88c16.042667 0 29.226667-12.757333 29.226667-28.245333v-13.397334c0-15.488-13.184-28.245333-29.226667-28.245333z m314.325333 573.184l-366.293333-355.882667a30.250667 30.250667 0 0 0-41.472-0.170666l-9.813333 9.514666a27.818667 27.818667 0 0 0-0.213334 40.106667L921.429333 866.304a30.250667 30.250667 0 0 0 41.472 0.170667l9.813334-9.514667c11.477333-11.093333 11.477333-29.013333 0-40.106667z"  horiz-adv-x="1024" />

    
    <glyph glyph-name="icon--" unicode="&#4145;" d="M709.12 430.08l-176.64 176.64c-5.12 5.12-12.8 7.68-20.48 7.68-7.68 0-12.8-2.56-20.48-7.68l-176.64-176.64c-10.24-10.24-10.24-25.6 0-35.84 10.24-10.24 25.6-10.24 35.84 0l133.12 133.12V-25.600000000000023c0-15.36 10.24-25.6 25.6-25.6s25.6 10.24 25.6 25.6V527.36l133.12-133.12c10.24-10.24 25.6-10.24 35.84 0 12.8 7.68 12.8 25.6 5.12 35.84zM768 768H256C199.68 768 153.6 721.92 153.6 665.6v-512c0-56.32 46.08-102.4 102.4-102.4h76.8v51.2h-76.8c-28.16 0-51.2 23.04-51.2 51.2V665.6c0 28.16 23.04 51.2 51.2 51.2h512c28.16 0 51.2-23.04 51.2-51.2v-512c0-28.16-23.04-51.2-51.2-51.2h-76.8v-51.2h76.8c56.32 0 102.4 46.08 102.4 102.4V665.6c0 56.32-46.08 102.4-102.4 102.4z"  horiz-adv-x="1024" />

    
    <glyph glyph-name="dianhua" unicode="&#58903;" d="M691.2 617.2444439999999c0 2.844444 36.977778 56.888889 79.644444 99.55555599 17.066667 17.066667 45.511111 39.822222 73.955556 39.82222201 19.911111 0 45.511111-14.222222 65.42222201-36.977778 5.688889-5.688889 56.888889-62.577778 56.88888899-147.911111 0-22.755556-2.84444401-48.355556-11.377778-71.111111-5.688889-22.755556-19.911111-51.2-34.133333-79.644444-56.888889-102.4-136.533333-179.2-250.311111-253.15555601-199.111111-128-364.088889-130.844444-392.533333-130.84444399-145.066667 0-201.955556 119.46666701-207.644445 133.688889-11.377778 22.755556-14.222222 39.822222-14.222222 54.044444 0 5.688889 0 14.222222 2.844444 19.911111 2.844444 14.222222 14.222222 31.288889 39.822223 45.511111 36.977778 17.066667 88.17777799 34.133333 145.066666 45.511111 56.888889 11.37777799 71.111111-19.91111099 88.177778-51.2 0 0 22.755556-54.044444 28.444444-65.422222 2.844444-11.377778 14.222222-14.222222 22.755556-11.377778 65.422222 19.911111 136.533333 54.044444 199.111111 96.711112s119.46666701 88.177778 167.822222 139.377777c2.844444 2.844444 5.688889 5.688889 5.688889 14.222223 0 5.688889-2.844444 11.377778-5.688889 14.222222-11.377778 5.688889-28.444444 19.911111-36.977777 34.133333-22.755556 22.755556-34.13333299 48.355556-34.133334 71.111111 0 5.688889 0 11.377778 2.844445 17.066667-2.844444 5.688889 0 11.377778 8.533333 22.755555z"  horiz-adv-x="1024" />

    
    <glyph glyph-name="shuju" unicode="&#58882;" d="M1147.25049781-95.98968749999995H46.11819875C38.3241275-95.98968749999995 32-89.66556000000003 32-81.87242719000005v28.233585c0 7.79313281 6.3241275 14.11819875 14.11726125 14.11819875H144.93621312V468.72137813c0 31.17065719 25.26932531 56.46810656 56.46810657 56.46810656h225.87336469v112.90809c0 31.19878125 25.26932531 56.46904406 56.46810656 56.46904406h225.87430219v112.96433719c0 31.17065719 25.26932531 56.46904406 56.46810656 56.46904406H991.96250187c31.17065719 0 56.46810656-25.29744937 56.46810657-56.46810656v-847.05441188h98.81988937c7.79313281 0 14.11726125-6.3241275 14.11726125-14.11726125v-28.233585c0-7.79313281-6.3241275-14.11726125-14.11726125-14.11726031z m-719.97187593 564.71200313H201.40525719v-508.24389657h225.87336469V468.72231562zM709.62103062 638.12851031H483.74672844v-677.64915375h225.87430219V638.12851031zM991.96250187 807.50470688H766.08913719v-847.02628782H991.96250187V807.50470688z"  horiz-adv-x="1204" />

    
    <glyph glyph-name="weibiaoti-" unicode="&#4115;" d="M772.654545-4.654544999999985l-13.963636 4.654545C165.236364 181.52727300000004 128 630.6909089999999 125.672727 635.345455V663.272727l155.927273 116.363637 160.581818-209.454546-81.454545-90.763636c27.927273-95.418182 174.545455-200.145455 242.036363-242.036364l109.381819 74.472727 190.836363-169.890909-130.327273-146.618181zM172.218182 637.672727c2.327273-25.6 44.218182-416.581818 586.472727-588.8l83.781818 88.436364-128 114.036364-104.727272-69.818182-11.636364 6.981818c-9.309091 6.981818-249.018182 146.618182-279.272727 290.909091l-2.327273 11.636363 72.145454 79.127273L279.272727 712.145455l-107.054545-74.472728z"  horiz-adv-x="1024" />

    
    <glyph glyph-name="shuju1" unicode="&#24672;" d="M464.9-90.39999999999998c-57.8 0-113.8 11.3-166.6 33.6-51 21.6-96.7 52.4-136 91.7C123 74.29999999999995 92.1 120 70.6 171 48.3 223.79999999999995 37 279.79999999999995 37 337.6s11.3 113.8 33.6 166.6c21.6 51 52.4 96.7 91.7 136 39.3 39.3 85.1 70.2 136 91.7 52.8 22.3 108.8 33.6 166.6 33.6h29v-400.2H893v-28c0-57.7-11.4-113.8-33.7-166.5-21.6-50.9-52.4-96.7-91.7-136-39.3-39.3-85.1-70.1-136-91.6-52.9-22.3-108.9-33.6-166.7-33.6z m-27 799.1c-89.2-6.4-172.1-44.1-236-108-70.3-70.3-109-163.7-109-263 0-99.4 38.7-192.8 109-263s163.7-109 263-109c99.3 0 192.7 38.7 263 108.9 63.6 63.6 101.4 146.1 108 234.9h-398V708.7zM987.1 422.3l-28 0.1h-408v436l28.1-0.1c55.1-0.1 108.5-11 158.8-32.3 48.6-20.6 92.2-50 129.7-87.4 37.5-37.4 66.9-81 87.4-129.5 21.3-50.2 32.1-103.6 32.1-158.5v-28.3z m-380 56.1H930c-6.5 83.3-42.1 160.9-102 220.7-59.8 59.8-137.4 95.5-220.9 102.2v-322.9z"  horiz-adv-x="1024" />

    
    <glyph glyph-name="renzheng" unicode="&#58890;" d="M640.40025-128l-640.40025 630.153846 160.100063 393.846154h960.600375l160.100062-393.846154-640.40025-630.153846z m213.893684 853.013133L640.40025 383.6798l-213.253283 341.333333H256.1601l384.24015-597.493433 384.24015 597.493433h-170.346466z"  horiz-adv-x="1280" />

    
    <glyph glyph-name="youhuiquan" unicode="&#58950;" d="M633.344 430.08H558.08l84.48 92.672c4.608 5.632 4.608 13.824 0 18.944l-17.408 18.944c-4.096 4.608-11.264 5.12-16.384 1.024-0.512-0.512-1.024-0.512-1.024-1.024L510.976 454.656 415.232 559.616c-4.096 4.608-11.264 5.12-16.384 1.024-0.512-0.512-1.024-0.512-1.024-1.024l-17.408-18.944c-4.608-5.632-4.608-13.312 0-18.944L464.384 430.08H389.632c-7.68 0-13.824-6.144-13.824-13.824V389.12c0-7.68 6.144-13.824 13.824-13.824h94.72v-54.272H389.632c-7.68 0-13.824-6.144-13.824-13.824v-27.136c0-7.68 6.144-13.824 13.824-13.824h94.72v-68.096c0-7.68 6.144-13.824 13.824-13.824h27.136c7.68 0 13.824 6.144 13.824 13.824V266.24h94.72c7.68 0 13.824 6.144 13.824 13.824V307.2c0 7.68-6.144 13.824-13.312 13.824h-94.72v54.272h94.72c7.68 0 13.824 6.144 13.824 13.824v27.136c-1.024 7.68-7.168 13.824-14.848 13.824z m311.808 299.52H77.824c-30.208 0-54.272-24.576-54.272-54.272v-154.624S17.408 488.96 49.664 481.28l3.072-1.024c9.728-3.072 44.032-15.36 64.512-49.664 1.024-1.536 2.048-3.072 2.56-4.608l1.536-3.072 0.512-1.536 1.536-3.072c14.848-34.816 10.24-75.264-12.288-105.984-17.408-23.552-40.448-34.304-52.736-38.912-3.072-1.024-5.632-2.048-8.704-2.56-32.256-7.68-26.112-39.424-26.112-39.424v-154.112c0-30.208 24.064-54.272 54.272-54.272h867.328c30.208 0 54.272 24.576 54.272 54.272V240.64c0 5.12-1.536 9.728-4.096 13.824-4.608 8.704-12.8 14.848-22.528 16.896v0.512c-5.632 1.536-11.264 3.072-16.384 5.632-39.936 16.896-66.048 56.32-65.536 99.84 0 31.232 13.312 59.392 34.304 79.36 11.264 10.24 24.576 17.92 38.912 23.552 3.072 1.024 5.632 1.536 8.704 2.56 10.24 2.048 18.432 8.704 23.04 17.408 2.048 4.096 3.584 8.704 3.584 13.312V674.816c0 30.208-24.064 54.272-54.272 54.784z m0-626.176c0-14.848-12.288-27.136-27.136-27.136H104.96c-14.848 0-27.136 12.288-27.136 27.136v118.272c84.992 30.208 129.024 123.904 98.816 208.896-16.384 46.08-52.736 82.432-98.816 98.816V647.68c0 14.848 12.288 27.136 27.136 27.136h813.568c14.848 0 27.136-12.288 27.136-27.136v-118.272c-84.992-30.208-129.024-123.904-98.816-208.896 16.384-46.08 52.736-82.432 98.816-98.816v-118.272h-0.512z"  horiz-adv-x="1024" />

    
    <glyph glyph-name="ElecfansAPPiCON-14" unicode="&#58881;" d="M736.946595-128H131.758145a124.371738 124.371738 0 0 0-124.236207 124.236208v768.005647c0 68.510621 55.748175 124.236208 124.236207 124.236207h605.18845c68.488033 0 124.236208-55.725586 124.236208-124.236207v-768.005647c0-68.510621-55.748175-124.236208-124.236208-124.236208z m-605.18845 948.712858a56.538769 56.538769 0 0 1-56.471003-56.471003v-768.005647c0-31.126817 25.321598-56.471003 56.471003-56.471004h605.18845c31.149406 0 56.471003 25.344186 56.471004 56.471004v768.005647c0 31.126817-25.321598 56.471003-56.471004 56.471003H131.758145zM895.065405-128H247.930294v67.765204h647.135111c31.149406 0 56.471003 25.344186 56.471003 56.471004v568.324178c0 30.607284-20.690976 56.471003-45.176802 56.471004h-79.059405v67.765204h79.059405c62.276223 0 112.942007-55.725586 112.942007-124.236208v-568.324178c0-68.510621-55.748175-124.236208-124.236208-124.236208zM395.297024 587.871617H186.354311a33.882602 33.882602 0 1 0 0 67.765204h208.942713a33.882602 33.882602 0 1 0 0-67.765204zM649.41654 420.446386H186.354311a33.882602 33.882602 0 1 0 0 67.765204h463.062229a33.882602 33.882602 0 1 0 0-67.765204zM649.41654 252.99856599999998H186.354311a33.882602 33.882602 0 1 0 0 67.765204h463.062229a33.882602 33.882602 0 1 0 0-67.765204zM649.41654 85.57333500000004H186.354311a33.882602 33.882602 0 1 0 0 67.765204h463.062229a33.882602 33.882602 0 1 0 0-67.765204z"  horiz-adv-x="1026" />

    
    <glyph glyph-name="yinhang" unicode="&#58904;" d="M839.76540498 468.0864128H184.23459502c-14.58641855 0-27.45678784 8.5802462-32.60493556 22.30864012s-0.85802462 28.31481246 10.29629543 37.7530833l338.91972505 277.99997701c6.00617233 5.14814772 15.44444316 5.14814772 21.45061552 0l338.91972504-277.99997701c11.15432006-9.43827083 15.44444316-24.02468937 10.29629544-37.7530833-4.29012309-13.72839391-17.16049241-22.30864012-31.74691096-22.30864012zM512 772.68515303L184.23459502 502.4073976l0.85802462-1.71604924h655.53080997l11.15432006 14.58641856-10.29629545-12.87036932L512 772.68515303zM699.90739186 468.0864128H324.09260814c-6.86419697 0-13.72839391 4.29012309-15.44444316 11.15432005-2.57407386 6.86419697 0 13.72839391 5.14814773 18.87654164l187.90739183 154.44443168c6.00617233 5.14814772 15.44444316 5.14814772 21.45061552 0l187.90739185-154.44443168c5.14814772-4.29012309 7.72222158-12.01234468 5.14814774-18.87654164-2.57407386-6.86419697-8.5802462-11.15432006-16.30246779-11.15432005z m-329.48145423 33.46296019h283.14812474L512 617.38269676 370.42593763 501.54937299zM806.30244477 45.08027494999999H217.69755523c-9.43827083 0-16.30246778 7.72222158-16.30246781 16.30246781v92.66665899c0 9.43827083 7.72222158 16.30246778 16.30246781 16.30246779h588.60488954c9.43827083 0 16.30246778-7.72222158 16.30246781-16.30246779v-92.66665899c0-8.5802462-6.86419697-16.30246778-16.30246781-16.30246781z m-571.44439715 33.4629602h555.14192937v59.20369879H234.85804762v-59.20369879zM856.9258974-42.438236329999995H167.0741026c-9.43827083 0-16.30246778 7.72222158-16.30246776 16.30246781s7.72222158 16.30246778 16.30246776 16.30246777h690.70981939c9.43827083 0 16.30246778-7.72222158 16.3024678-16.30246777s-7.72222158-16.30246778-17.16049239-16.30246781zM290.62964797 137.74693393999996c-9.43827083 0-16.30246778 7.72222158-16.30246782 16.30246781v257.40738609c0 9.43827083 7.72222158 16.30246778 16.30246782 16.30246779 9.43827083 0 16.30246778-7.72222158 16.30246777-16.30246779v-256.54936147c0-9.43827083-7.72222158-17.16049241-16.30246777-17.16049243zM438.20988266 137.74693393999996c-9.43827083 0-16.30246778 7.72222158-16.3024678 16.30246781v257.40738609c0 9.43827083 7.72222158 16.30246778 16.3024678 16.30246779 9.43827083 0 16.30246778-7.72222158 16.30246777-16.30246779v-256.54936147c0-9.43827083-6.86419697-17.16049241-16.30246777-17.16049243zM585.79011734 137.74693393999996c-9.43827083 0-16.30246778 7.72222158-16.30246777 16.30246781v257.40738609c0 9.43827083 7.72222158 16.30246778 16.30246777 16.30246779 9.43827083 0 16.30246778-7.72222158 16.3024678-16.30246779v-256.54936147c0.85802462-9.43827083-6.86419697-17.16049241-16.3024678-17.16049243zM733.37035203 137.74693393999996c-9.43827083 0-16.30246778 7.72222158-16.30246777 16.30246781v257.40738609c0 9.43827083 7.72222158 16.30246778 16.30246777 16.30246779 9.43827083 0 16.30246778-7.72222158 16.30246782-16.30246779v-256.54936147c0.85802462-9.43827083-6.86419697-17.16049241-16.30246782-17.16049243z"  horiz-adv-x="1024" />

    
    <glyph glyph-name="xiaoxi" unicode="&#58919;" d="M909 155.51H476.767l-193.18-193.18a33.851 33.851 0 0 0-7.75-5.8 29.819 29.819 0 0 0-14.966-4.03c-0.661 0-1.308 0.057-1.958 0.1-0.253 0.012-0.506 0.02-0.759 0.038-0.3 0.028-0.6 0.066-0.9 0.1a28.664 28.664 0 0 0-17.48 8.2 28.252 28.252 0 0 0-4.944 6.714 29.82 29.82 0 0 0-3.959 14.848V155.51H115a50 50 0 0 0-50 50v560a50 50 0 0 0 50 50h794a50 50 0 0 0 50-50v-560a50 50 0 0 0-50-50zM899 735.5a20 20 0 0 1-20 20H145a20 20 0 0 1-20-20v-500a20 20 0 0 1 20-20h146.08v-59.99h-0.209v-101.043L391.914 155.51h-0.089l59.365 59.99H879a20 20 0 0 1 20 20v500z m-196-296a45 45 0 1 0 45 45 45 45 0 0 0-45-45z m-182 1a45 45 0 1 0 45 45 45 45 0 0 0-45-45z m-182-1a45 45 0 1 0 45 45 45 45 0 0 0-45-45z"  horiz-adv-x="1024" />

    
    <glyph glyph-name="tubiaozhizuomoban" unicode="&#58885;" d="M515 1L399.7 116.4l55.6-0.2 59.7-59.7 129.3 129.2h243.6V700.9H142.2v-515.2h128.1v-39.2H102.9V740.1h824.3v-593.6H660.5zM201 583.1h628v-39.3H201zM201 444.1h314v-39.3H201zM201 305.1h510.3v-39.3H201z"  horiz-adv-x="1024" />

    
    <glyph glyph-name="huati" unicode="&#58889;" d="M596.945455 504.242424h-20.428283l-7.886869-44.347475h28.185859c7.628283 0.129293 14.610101 4.137374 18.618181 10.602021l2.973738 16.678788c-2.19798 9.955556-11.119192 17.066667-21.462626 17.066666z m-53.527273-187.991919h44.993939l7.886869 44.347475h-44.993939l-7.886869-44.347475z m-135.111111 22.238384c0 12.153535 9.826263 22.109091 21.979798 22.109091h24.30707l17.971718 99.296969h-45.511112l-34.779798-197.042424c-2.19798-12.024242 5.947475-23.531313 17.971718-25.729293 12.024242-2.19798 23.531313 5.947475 25.729293 17.971717l10.60202 61.026263h-16.290909c-5.818182 0-11.507071 2.327273-15.644445 6.59394-4.008081 4.266667-6.335354 9.826263-6.335353 15.773737z m81.195959 219.151515c2.19798 12.024242-5.947475 23.531313-17.971717 25.729293-12.024242 2.068687-23.531313-5.947475-25.729293-17.971717l-10.60202-61.026263h44.864646l9.438384 53.268687z m-9.309091-53.268687h-45.123232l-7.886869-44.347475h45.123233l7.886868 44.347475z m0 0M430.416162 360.59798c-12.282828 0-22.238384-9.955556-22.238384-22.238384s9.955556-22.238384 22.238384-22.238384h16.420202l7.886868 44.347475h-24.30707z m0 0M596.945455 459.894949h-28.315152l-17.583838-99.296969H596.040404l19.393939 109.640404c-3.878788-6.335354-10.860606-10.214141-18.488888-10.343435z m0 44.347475c10.214141-0.258586 19.006061-7.369697 21.20404-17.325252l12.541414 70.593939c2.19798 12.024242-5.947475 23.531313-17.971717 25.729293-12.024242 2.068687-23.531313-5.947475-25.729293-17.971717l-10.60202-61.026263h20.557576z m0 0M663.40202 459.894949h2.327273c12.282828 0 22.238384 9.955556 22.238384 22.238384s-9.955556 22.238384-22.238384 22.238384h-2.327273c-12.282828 0-22.238384-9.955556-22.238384-22.238384s9.955556-22.238384 22.238384-22.238384z m-94.642424 0L576.646465 504.242424h-96.452526l-7.886868-44.347475h96.452525zM358.270707 504.242424c-12.282828 0-22.238384-9.955556-22.238384-22.238384s9.955556-22.238384 22.238384-22.238383h68.913131l7.886869 44.347474h-76.8z m260.913131-22.238384c0 1.680808-0.129293 3.232323-0.517171 4.913132l-2.973738-16.678788c2.19798 3.490909 3.490909 7.628283 3.490909 11.765656z m-164.460606-121.40606l-7.886868-44.347475h96.452525l7.886869 44.347475h-96.452526z m210.488889-44.347475c12.282828 0 22.238384 9.955556 22.238384 22.238384S677.494949 360.727273 665.212121 360.727273h-68.913131l-7.886869-44.347475h76.8z m-305.519192 44.347475h-1.422222c-5.818182 0-11.377778-2.327273-15.385859-6.59394-4.008081-4.137374-6.076768-9.826263-5.818181-15.644444 0.387879-12.412121 10.472727-22.238384 22.884848-22.109091 12.282828 0 22.238384 9.955556 22.238384 22.238384s-9.955556 22.238384-22.238384 22.238384l-0.258586-0.129293zM533.979798 262.981818c-2.19798-12.024242 5.947475-23.531313 17.971717-25.729293 12.024242-2.19798 23.531313 5.947475 25.729293 17.971717l10.60202 61.026263h-44.864646l-9.438384-53.268687z m0 0M157.220202 23.40202c-10.084848 0-19.911111 4.008081-27.410101 11.377778-9.955556 9.955556-13.705051 24.048485-10.084848 37.624242l52.10505 194.585859c-18.618182 44.218182-28.70303 91.151515-29.737374 139.507071-1.163636 52.234343 8.145455 103.046465 27.668687 151.143434 18.747475 46.416162 46.157576 88.177778 81.454546 124.250505 35.167677 35.943434 76.282828 64.258586 122.311111 84.169697 47.709091 20.557576 98.262626 31.030303 150.367676 31.030303 102.012121 0 197.947475-39.692929 269.963637-111.838384 72.145455-72.145455 111.838384-168.080808 111.838384-270.092929 0-52.234343-10.472727-102.787879-31.030303-150.49697-19.911111-45.89899-48.226263-87.014141-84.169697-122.311111-36.072727-35.167677-77.834343-62.577778-124.379798-81.325252-48.226263-19.523232-99.038384-28.70303-151.272728-27.539394-57.276768 1.292929-111.838384 14.99798-162.650505 40.597979L167.434343 24.694949c-3.490909-0.905051-6.852525-1.292929-10.214141-1.292929z m366.545455 732.315152c-92.056566 0-178.424242-36.460606-243.070708-102.658586C215.919192 586.731313 181.39798 499.587879 183.466667 407.531313c1.034343-45.381818 10.860606-89.212121 29.090909-130.456566l2.973737-6.723232-54.690909-204.541414 196.266667 52.622222 7.240404-3.878788c47.062626-24.953535 98.00404-38.4 151.531313-39.563636 92.185859-2.19798 179.458586 32.323232 245.785858 97.09899 66.327273 64.775758 102.787879 151.014141 102.787879 243.2 0 91.022222-35.426263 176.484848-99.684848 240.872727-64.517172 64.129293-149.979798 99.555556-241.00202 99.555556z"  horiz-adv-x="1024" />

    
    <glyph glyph-name="shijian" unicode="&#58894;" d="M512 783c220 0 399-179 399-399S732-15 512-15 113 164 113 384s179 399 399 399m0 42C268.4 825 71 627.6 71 384s197.4-441 441-441 441 197.4 441 441S755.6 825 512 825zM533.6 384.3c0-11.6-9.4-21-21-21s-21 9.4-21 21v294c0 11.6 9.4 21 21 21s21-9.4 21-21v-294zM497.8 365c-8.2 8.2-8.2 21.5 0 29.7s21.5 8.2 29.7 0l193-193c8.2-8.2 8.2-21.5 0-29.7s-21.5-8.2-29.7 0l-193 193z"  horiz-adv-x="1024" />

    
    <glyph glyph-name="xiala-" unicode="&#58891;" d="M512 112c-8.5 0-16.6 3.4-22.6 9.4l-480 480c-12.5 12.5-12.5 32.8 0 45.3s32.8 12.5 45.3 0L512 189.29999999999995l457.4 457.4c12.5 12.5 32.8 12.5 45.3 0s12.5-32.8 0-45.3l-480-480c-6.1-6-14.2-9.4-22.7-9.4z"  horiz-adv-x="1024" />

    
    <glyph glyph-name="yixiangfuwushang_huaban" unicode="&#58926;" d="M976.213333 855.04c-10.24 6.826667-23.893333 10.24-37.546666 3.413333l-887.466667-443.733333c-10.24-6.826667-17.066667-20.48-17.066667-30.72 0-13.653333 10.24-23.893333 20.48-30.72l204.8-78.506667c17.066667-6.826667 37.546667 3.413333 44.373334 20.48 6.826667 17.066667-3.413333 37.546667-20.48 44.373334l-133.12 51.2 631.466666 314.026666-395.946666-399.36c-6.826667-6.826667-10.24-13.653333-10.24-23.893333v-341.333333c0-13.653333 10.24-27.306667 23.893333-34.133334h10.24c10.24 0 20.48 6.826667 27.306667 13.653334l163.84 228.693333 170.666666-71.68c3.413333 0 10.24-3.413333 13.653334-3.413333 6.826667 0 10.24 0 17.066666 3.413333 10.24 3.413333 13.653333 13.653333 17.066667 23.893333l170.666667 716.8c3.413333 13.653333-3.413333 27.306667-13.653334 37.546667zM443.733333 46.08V213.333333l92.16-37.546666-92.16-129.706667z m317.44 112.64L457.386667 281.6 894.293333 718.506667l-133.12-559.786667z"  horiz-adv-x="1024" />

    
    <glyph glyph-name="zixun" unicode="&#58935;" d="M251.676444 334.506667a58.026667 58.026667 0 1 1 0 116.167111 58.026667 58.026667 0 0 1 0-116.167111z m193.649778 0a58.026667 58.026667 0 1 1 0 116.167111 58.026667 58.026667 0 0 1 0-116.167111z m193.592889 0a58.026667 58.026667 0 1 1 0 116.167111 58.026667 58.026667 0 0 1 0-116.167111z m212.992 367.900444H38.684444S0 702.407111 0 663.665778v-542.151111c0-38.684444 38.684444-38.684444 38.684444-38.684445h116.224v-193.592889l193.592889 193.592889h503.409778s38.684444 0 38.684445 38.684445v542.151111c0 38.684444-38.684444 38.684444-38.684445 38.684444z m-38.684444-542.151111H316.359111l-22.641778-22.698667-61.44-61.44v84.195556H77.425778V624.867556h735.744v-464.668445zM1045.447111 896H232.334222s-38.684444 0-38.684444-38.684444v-116.224h77.368889V818.631111h735.744V353.848889h-77.368889v-77.482667h116.110222s38.684444 0 38.684444 38.684445V857.315556c0 38.741333-38.684444 38.741333-38.684444 38.741333z"  horiz-adv-x="1137" />

    
    <glyph glyph-name="renshu" unicode="&#58911;" d="M209.85222231-87.64030699A60.740084 60.740084 0 0 0 149.74254331-19.87728899000001a400.362535 400.362535 0 0 0 166.64814 327.191304 453.935908 453.935908 0 0 0 54.115301 32.438214 271.11843 271.11843 0 0 0-64.909605 75.991463 280.718283 280.718283 0 0 0-36.110047 165.542166A274.491651 274.491651 0 0 0 498.96484731 829.57698801 328.109263 328.109263 0 0 0 536.96610931 831.99907101a260.788635 260.788635 0 0 0 101.638997-20.327799 273.617931 273.617931 0 0 0 107.44536-82.284455 279.667608 279.667608 0 0 0 55.630484-125.848765 295.505154 295.505154 0 0 0-13.747255-149.074215 258.797882 258.797882 0 0 0-79.342564-112.289526 295.825886 295.825886 0 0 0 85.159987-59.059004l1.846976-1.448825a391.127653 391.127653 0 0 0 91.430859-131.168499 427.160281 427.160281 0 0 0 37.315557-170.319974 65.838623 65.838623 0 0 0-20.571113-49.857301 71.8883 71.8883 0 0 0-49.768824-17.905717z m-0.81842 60.021201h644.782756c11.955577 0 11.955577 3.38428 11.955577 7.741817a369.27361 369.27361 0 0 1-108.772528 256.530635l-1.891216 1.448826a223.406718 223.406718 0 0 1-111.028715 62.929912 9.876347 9.876347 0 0 0-3.682893 0.962197 268.552571 268.552571 0 0 0-98.741345-17.905717 350.372517 350.372517 0 0 0-106.250908 17.385909 323.762786 323.762786 0 0 1-85.712974-43.56431 339.954243 339.954243 0 0 1-141.564653-277.820631 25.061368 25.061368 0 0 1 0.917958-7.741817z m237.563183 388.672391a298.347507 298.347507 0 0 1 95.246468-16.94352 206.695453 206.695453 0 0 1 96.275024 22.749883 198.024618 198.024618 0 0 1 94.7709 108.385437 232.309808 232.309808 0 0 1 11.059738 118.095888 219.447332 219.447332 0 0 1-43.575369 98.254717 205.501002 205.501002 0 0 1-315.57858 13.072611 219.215077 219.215077 0 0 1-29.042873-257.979461 214.780122 214.780122 0 0 1 90.811513-85.668734z m0 0"  horiz-adv-x="1067" />

    
    <glyph glyph-name="shuaqiaqiapianyinhangqia" unicode="&#58914;" d="M921.7 741.1c28.2 0 51.2-23 51.2-51.2v-612c0-28.2-23-51.2-51.2-51.2H102.5c-28.2 0-51.2 23-51.2 51.2v612c0 28.2 23 51.2 51.2 51.2h819.2m0 51.2H102.5C46 792.3 0.1 746.4 0.1 689.9v-612c0-56.6 45.8-102.4 102.4-102.4H921.7c56.6 0 102.4 45.8 102.4 102.4v612c0 56.5-45.8 102.4-102.4 102.4zM925.8 638.7h-88.4l-76.8-204.8H849l76.8 204.8zM177.2 485.1H126v-51.2h51.2v51.2zM279.6 485.1h-51.2v-51.2h51.2v51.2zM976.3 215.5H46.6v-51.2h929.7v51.2zM382 485.1h-51.2v-51.2H382v51.2zM666.7 638.7h-51.2l-76.8-204.8h51.2l76.8 204.8zM767.3 638.7h-51.2l-76.8-204.8h51.2l76.8 204.8z"  horiz-adv-x="1024" />

    
    </font>
</defs>
</svg>
